<mxfile modified="2023-10-16T19:05:31.256Z" host="Electron" agent="Mozilla/5.0 (Macintosh; Intel Mac OS X 10_15_7) AppleWebKit/537.36 (KHTML, like Gecko) draw.io/22.0.2 Chrome/114.0.5735.289 Electron/25.8.4 Safari/537.36" etag="acepRIMsmtQPg6QR9sP1" version="22.0.2" type="device" pages="4">
  <diagram name="optimized" id="kaqVK8w4mopJ4TJ72Xtg">
    <mxGraphModel dx="1266" dy="679" grid="1" gridSize="10" guides="1" tooltips="1" connect="1" arrows="1" fold="1" page="1" pageScale="1" pageWidth="1169" pageHeight="827" math="0" shadow="0">
      <root>
        <mxCell id="0bYfw5wELjY6Rt9RE2pR-0" />
        <mxCell id="0bYfw5wELjY6Rt9RE2pR-1" parent="0bYfw5wELjY6Rt9RE2pR-0" />
        <mxCell id="0bYfw5wELjY6Rt9RE2pR-2" value="AWS Cloud" style="points=[[0,0],[0.25,0],[0.5,0],[0.75,0],[1,0],[1,0.25],[1,0.5],[1,0.75],[1,1],[0.75,1],[0.5,1],[0.25,1],[0,1],[0,0.75],[0,0.5],[0,0.25]];outlineConnect=0;gradientColor=none;html=1;whiteSpace=wrap;fontSize=12;fontStyle=0;shape=mxgraph.aws4.group;grIcon=mxgraph.aws4.group_aws_cloud_alt;strokeColor=#232F3E;fillColor=#FFFFFF;verticalAlign=top;align=left;spacingLeft=30;fontColor=#232F3E;dashed=0;labelBackgroundColor=#ffffff;container=1;pointerEvents=0;collapsible=0;recursiveResize=0;" parent="0bYfw5wELjY6Rt9RE2pR-1" vertex="1">
          <mxGeometry x="50" y="80" width="820" height="496" as="geometry" />
        </mxCell>
        <mxCell id="0bYfw5wELjY6Rt9RE2pR-4" value="API Gateway (HTTP)" style="sketch=0;points=[[0,0,0],[0.25,0,0],[0.5,0,0],[0.75,0,0],[1,0,0],[0,1,0],[0.25,1,0],[0.5,1,0],[0.75,1,0],[1,1,0],[0,0.25,0],[0,0.5,0],[0,0.75,0],[1,0.25,0],[1,0.5,0],[1,0.75,0]];outlineConnect=0;fontColor=#232F3E;fillColor=#8C4FFF;strokeColor=#ffffff;dashed=0;verticalLabelPosition=bottom;verticalAlign=top;align=center;html=1;fontSize=12;fontStyle=0;aspect=fixed;shape=mxgraph.aws4.resourceIcon;resIcon=mxgraph.aws4.api_gateway;" parent="0bYfw5wELjY6Rt9RE2pR-2" vertex="1">
          <mxGeometry x="90" y="334" width="78" height="78" as="geometry" />
        </mxCell>
        <mxCell id="0bYfw5wELjY6Rt9RE2pR-5" value="Amazon Aurora RDS" style="sketch=0;points=[[0,0,0],[0.25,0,0],[0.5,0,0],[0.75,0,0],[1,0,0],[0,1,0],[0.25,1,0],[0.5,1,0],[0.75,1,0],[1,1,0],[0,0.25,0],[0,0.5,0],[0,0.75,0],[1,0.25,0],[1,0.5,0],[1,0.75,0]];outlineConnect=0;fontColor=#232F3E;fillColor=#C925D1;strokeColor=#ffffff;dashed=0;verticalLabelPosition=bottom;verticalAlign=top;align=center;html=1;fontSize=12;fontStyle=0;aspect=fixed;shape=mxgraph.aws4.resourceIcon;resIcon=mxgraph.aws4.rds;" parent="0bYfw5wELjY6Rt9RE2pR-2" vertex="1">
          <mxGeometry x="630" y="334" width="78" height="78" as="geometry" />
        </mxCell>
        <mxCell id="0bYfw5wELjY6Rt9RE2pR-7" value="AWS Lambda" style="outlineConnect=0;fontColor=#232F3E;gradientColor=#F78E04;gradientDirection=north;fillColor=#D05C17;strokeColor=#ffffff;dashed=0;verticalLabelPosition=bottom;verticalAlign=top;align=center;html=1;fontSize=12;fontStyle=0;aspect=fixed;shape=mxgraph.aws4.resourceIcon;resIcon=mxgraph.aws4.lambda;labelBackgroundColor=#ffffff;spacingTop=6;" parent="0bYfw5wELjY6Rt9RE2pR-2" vertex="1">
          <mxGeometry x="256" y="334" width="78" height="78" as="geometry" />
        </mxCell>
        <mxCell id="0bYfw5wELjY6Rt9RE2pR-8" style="edgeStyle=orthogonalEdgeStyle;rounded=0;orthogonalLoop=1;jettySize=auto;html=1;exitX=1;exitY=0.5;exitDx=0;exitDy=0;exitPerimeter=0;" parent="0bYfw5wELjY6Rt9RE2pR-2" source="0bYfw5wELjY6Rt9RE2pR-4" target="0bYfw5wELjY6Rt9RE2pR-7" edge="1">
          <mxGeometry relative="1" as="geometry" />
        </mxCell>
        <mxCell id="1Hh9DQLCG3m9hJjgNXpU-0" value="Amazon RDS Proxy" style="sketch=0;outlineConnect=0;fontColor=#232F3E;gradientColor=none;fillColor=#C925D1;strokeColor=none;dashed=0;verticalLabelPosition=bottom;verticalAlign=top;align=center;html=1;fontSize=12;fontStyle=0;aspect=fixed;pointerEvents=1;shape=mxgraph.aws4.rds_proxy;" parent="0bYfw5wELjY6Rt9RE2pR-2" vertex="1">
          <mxGeometry x="446" y="334" width="78" height="78" as="geometry" />
        </mxCell>
        <mxCell id="1Hh9DQLCG3m9hJjgNXpU-1" style="edgeStyle=orthogonalEdgeStyle;rounded=0;orthogonalLoop=1;jettySize=auto;html=1;exitX=1;exitY=0.5;exitDx=0;exitDy=0;exitPerimeter=0;" parent="0bYfw5wELjY6Rt9RE2pR-2" target="1Hh9DQLCG3m9hJjgNXpU-0" edge="1">
          <mxGeometry relative="1" as="geometry">
            <mxPoint x="340" y="372.5" as="sourcePoint" />
            <mxPoint x="428" y="372.5" as="targetPoint" />
          </mxGeometry>
        </mxCell>
        <mxCell id="1Hh9DQLCG3m9hJjgNXpU-2" style="edgeStyle=orthogonalEdgeStyle;rounded=0;orthogonalLoop=1;jettySize=auto;html=1;exitX=1;exitY=0.5;exitDx=0;exitDy=0;exitPerimeter=0;entryX=0;entryY=0.5;entryDx=0;entryDy=0;entryPerimeter=0;" parent="0bYfw5wELjY6Rt9RE2pR-2" target="0bYfw5wELjY6Rt9RE2pR-5" edge="1">
          <mxGeometry relative="1" as="geometry">
            <mxPoint x="526" y="372.5" as="sourcePoint" />
            <mxPoint x="614" y="372.5" as="targetPoint" />
          </mxGeometry>
        </mxCell>
        <mxCell id="7GCxpn0eHg2p2ZtS-UhR-4" value="" style="endArrow=classic;html=1;rounded=0;entryX=0;entryY=0.5;entryDx=0;entryDy=0;" parent="0bYfw5wELjY6Rt9RE2pR-2" source="0bYfw5wELjY6Rt9RE2pR-7" target="7GCxpn0eHg2p2ZtS-UhR-1" edge="1">
          <mxGeometry width="50" height="50" relative="1" as="geometry">
            <mxPoint x="270" y="300" as="sourcePoint" />
            <mxPoint x="320" y="250" as="targetPoint" />
            <Array as="points">
              <mxPoint x="295" y="280" />
            </Array>
          </mxGeometry>
        </mxCell>
        <mxCell id="0bYfw5wELjY6Rt9RE2pR-11" value="" style="rounded=0;whiteSpace=wrap;html=1;labelBackgroundColor=none;fillColor=none;dashed=1;container=1;pointerEvents=0;collapsible=0;recursiveResize=0;" parent="0bYfw5wELjY6Rt9RE2pR-2" vertex="1">
          <mxGeometry x="80" y="90" width="650" height="140" as="geometry" />
        </mxCell>
        <mxCell id="0bYfw5wELjY6Rt9RE2pR-12" value="Amazon&lt;br&gt;CloudWatch" style="outlineConnect=0;fontColor=#232F3E;gradientColor=#F34482;gradientDirection=north;fillColor=#BC1356;strokeColor=#ffffff;dashed=0;verticalLabelPosition=bottom;verticalAlign=top;align=center;html=1;fontSize=12;fontStyle=0;aspect=fixed;shape=mxgraph.aws4.resourceIcon;resIcon=mxgraph.aws4.cloudwatch;labelBackgroundColor=#ffffff;" parent="0bYfw5wELjY6Rt9RE2pR-11" vertex="1">
          <mxGeometry x="30" y="20" width="78" height="78" as="geometry" />
        </mxCell>
        <mxCell id="0bYfw5wELjY6Rt9RE2pR-13" value="X-Ray" style="sketch=0;points=[[0,0,0],[0.25,0,0],[0.5,0,0],[0.75,0,0],[1,0,0],[0,1,0],[0.25,1,0],[0.5,1,0],[0.75,1,0],[1,1,0],[0,0.25,0],[0,0.5,0],[0,0.75,0],[1,0.25,0],[1,0.5,0],[1,0.75,0]];outlineConnect=0;fontColor=#232F3E;fillColor=#C925D1;strokeColor=#ffffff;dashed=0;verticalLabelPosition=bottom;verticalAlign=top;align=center;html=1;fontSize=12;fontStyle=0;aspect=fixed;shape=mxgraph.aws4.resourceIcon;resIcon=mxgraph.aws4.xray;" parent="0bYfw5wELjY6Rt9RE2pR-11" vertex="1">
          <mxGeometry x="170" y="20" width="78" height="78" as="geometry" />
        </mxCell>
        <mxCell id="1Hh9DQLCG3m9hJjgNXpU-3" value="Amazon Systems&lt;br&gt;Manager" style="sketch=0;outlineConnect=0;fontColor=#232F3E;gradientColor=none;fillColor=#E7157B;strokeColor=none;dashed=0;verticalLabelPosition=bottom;verticalAlign=top;align=center;html=1;fontSize=12;fontStyle=0;aspect=fixed;pointerEvents=1;shape=mxgraph.aws4.parameter_store;" parent="0bYfw5wELjY6Rt9RE2pR-11" vertex="1">
          <mxGeometry x="550" y="21" width="75" height="78" as="geometry" />
        </mxCell>
        <mxCell id="0bYfw5wELjY6Rt9RE2pR-6" value="AWS IAM" style="shape=image;verticalLabelPosition=bottom;labelBackgroundColor=default;verticalAlign=top;aspect=fixed;imageAspect=0;image=data:image/png,iVBORw0KGgoAAAANSUhEUgAAALoAAAC6CAYAAAAZDlfxAAAMQGlDQ1BJQ0MgUHJvZmlsZQAASImVVwdYU8kWnluSkEAIEEBASuhNEKkBpITQAkgvgo2QBAglxISgYkcXFVy7WMCGrooodkDsiJ1FsWFfLKgo62LBrrxJAV33le/N982d//5z5j9nzp259w4AtBNcsTgP1QIgX1QoiQ8LYoxOTWOQngIyIAEa0AM0Lk8qZsXGRgFYBtq/l3c3ACJvrzrJtf7Z/1+LNl8g5QGAxEKcwZfy8iE+AABexRNLCgEgynnLSYViOYYV6EpggBDPl+MsJa6S4wwl3qOwSYxnQ9wCgJoGlyvJAkDzMuQZRbwsqKHZC7GLiC8UAUBjQOyfn1/AhzgdYjtoI4ZYrs/M+EEn62+aGYOaXG7WIFbORVHUgoVScR53yv+Zjv9d8vNkAz5sYNXIloTHy+cM83YztyBSjjUg7hFlRMdArAPxByFfYQ8xSsmWhScp7VFjnpQNcwb0IXbhc4MjITaGOFSUFx2l4jMyhaEciOEKQScLCzmJEBtAPF8gDUlQ2WyUFMSrfKH1mRI2S8Wf40oUfuW+7styk1gq/dfZAo5KH9Mszk5MgZgCsVWRMDkaYk2InaW5CZEqm5HF2ezoARuJLF4evxXE8QJRWJBSHyvKlITGq+zL8qUD88U2Zgs50Sq8rzA7MVyZH6yFx1XED+eCXRaIWEkDOgLp6KiBufAFwSHKuWPPBKKkBJXOB3FhULxyLE4R58Wq7HELQV6YnLeA2F1alKAaiycXwgWp1MczxYWxico48eIcbkSsMh58CYgCbBAMGEAGawYoADlA2NbT0APvlD2hgAskIAsIgJOKGRiRougRwWsCKAZ/QiQA0sFxQYpeASiC/NdBVnl1ApmK3iLFiFzwBOJ8EAny4L1MMUo06C0ZPIaM8B/eubDyYLx5sMr7/z0/wH5nWJCJUjGyAY8M2oAlMYQYTAwnhhLtcSPcH/fFo+A1EFZXnIl7D8zjuz3hCaGd8JBwndBJuDVBWCL5KcpRoBPqh6pykfFjLnAbqOmBB+F+UB0q4/q4EXDC3aEfFh4APXtAlq2KW54Vxk/af5vBD09DZUd2IaPkIeRAst3PIzUdND0GVeS5/jE/ylgzBvPNHuz52T/7h+zzYRv5syU2H9uPncVOYuexI1gDYGDHsUasFTsqx4Or67FidQ14i1fEkwt1hP/wN/Bk5ZmUutS6dLt8UfYVCibL39GAXSCeIhFmZRcyWPCLIGBwRDznYQxXF1c3AOTfF+Xr602c4ruB6Ld+5+b8AYDf8f7+/sPfuYjjAOz1gtv/0HfOjgk/HeoAnDvEk0mKlBwuvxDgW4IGd5ohMAWWwA7OxxV4Al8QCEJABIgBiSAVjIfRZ8N1LgGTwDQwG5SCcrAErARrwQawGWwHu8A+0ACOgJPgDLgILoPr4A5cPV3gBegF78BnBEFICBWhI4aIGWKNOCKuCBPxR0KQKCQeSUXSkSxEhMiQacgcpBxZhqxFNiE1yF7kEHISOY+0I7eQB0g38hr5hGKoBqqLmqA26HCUibLQSDQRHYdmoRPRYnQuughdjVajO9F69CR6Eb2OdqIv0D4MYOqYPmaOOWFMjI3FYGlYJibBZmBlWAVWjdVhTfA5X8U6sR7sI07E6TgDd4IrOBxPwnn4RHwGvhBfi2/H6/EW/Cr+AO/FvxGoBGOCI8GHwCGMJmQRJhFKCRWErYSDhNNwL3UR3hGJRH2iLdEL7sVUYg5xKnEhcR1xN/EEsZ34iNhHIpEMSY4kP1IMiUsqJJWS1pB2ko6TrpC6SB/U1NXM1FzVQtXS1ERqJWoVajvUjqldUXuq9pmsRbYm+5BjyHzyFPJi8hZyE/kSuYv8maJNsaX4URIpOZTZlNWUOsppyl3KG3V1dQt1b/U4daH6LPXV6nvUz6k/UP+ooaPhoMHWGKsh01iksU3jhMYtjTdUKtWGGkhNoxZSF1FrqKeo96kfNOmazpocTb7mTM1KzXrNK5ovaWSaNY1FG08rplXQ9tMu0Xq0yFo2WmwtrtYMrUqtQ1odWn3adO0R2jHa+doLtXdon9d+pkPSsdEJ0eHrzNXZrHNK5xEdo1vS2XQefQ59C/00vUuXqGury9HN0S3X3aXbpturp6PnrpesN1mvUu+oXqc+pm+jz9HP01+sv0//hv6nISZDWEMEQxYMqRtyZch7g6EGgQYCgzKD3QbXDT4ZMgxDDHMNlxo2GN4zwo0cjOKMJhmtNzpt1DNUd6jvUN7QsqH7ht42Ro0djOONpxpvNm417jMxNQkzEZusMTll0mOqbxpommO6wvSYabcZ3czfTGi2wuy42XOGHoPFyGOsZrQwes2NzcPNZeabzNvMP1vYWiRZlFjstrhnSbFkWmZarrBstuy1MrMaZTXNqtbqtjXZmmmdbb3K+qz1extbmxSbeTYNNs9sDWw5tsW2tbZ37ah2AXYT7artrtkT7Zn2ufbr7C87oA4eDtkOlQ6XHFFHT0eh4zrH9mGEYd7DRMOqh3U4aTixnIqcap0eOOs7RzmXODc4vxxuNTxt+NLhZ4d/c/FwyXPZ4nJnhM6IiBElI5pGvHZ1cOW5Vrpec6O6hbrNdGt0e+Xu6C5wX+9+04PuMcpjnkezx1dPL0+JZ51nt5eVV7pXlVcHU5cZy1zIPOdN8A7ynul9xPujj6dPoc8+n798nXxzfXf4PhtpO1IwcsvIR34Wfly/TX6d/gz/dP+N/p0B5gHcgOqAh4GWgfzArYFPWfasHNZO1ssglyBJ0MGg92wf9nT2iWAsOCy4LLgtRCckKWRtyP1Qi9Cs0NrQ3jCPsKlhJ8IJ4ZHhS8M7OCYcHqeG0xvhFTE9oiVSIzIhcm3kwyiHKElU0yh0VMSo5aPuRltHi6IbYkAMJ2Z5zL1Y29iJsYfjiHGxcZVxT+JHxE+LP5tAT5iQsCPhXWJQ4uLEO0l2SbKk5mRa8tjkmuT3KcEpy1I6Rw8fPX30xVSjVGFqYxopLTlta1rfmJAxK8d0jfUYWzr2xjjbcZPHnR9vND5v/NEJtAncCfvTCekp6TvSv3BjuNXcvgxORlVGL4/NW8V7wQ/kr+B3C/wEywRPM/0yl2U+y/LLWp7VnR2QXZHdI2QL1wpf5YTnbMh5nxuTuy23Py8lb3e+Wn56/iGRjihX1FJgWjC5oF3sKC4Vd070mbhyYq8kUrJVikjHSRsLdeGPfKvMTvaL7EGRf1Fl0YdJyZP2T9aeLJrcOsVhyoIpT4tDi3+bik/lTW2eZj5t9rQH01nTN81AZmTMaJ5pOXPuzK5ZYbO2z6bMzp39e4lLybKSt3NS5jTNNZk7a+6jX8J+qS3VLJWUdszznbdhPj5fOL9tgduCNQu+lfHLLpS7lFeUf1nIW3jh1xG/rv61f1HmorbFnovXLyEuES25sTRg6fZl2suKlz1aPmp5/QrGirIVb1dOWHm+wr1iwyrKKtmqztVRqxvXWK1ZsubL2uy11yuDKndXGVctqHq/jr/uyvrA9XUbTDaUb/i0Ubjx5qawTfXVNtUVm4mbizY/2ZK85exvzN9qthptLd/6dZtoW+f2+O0tNV41NTuMdyyuRWtltd07x+68vCt4V2OdU92m3fq7y/eAPbI9z/em772xL3Jf837m/roD1geqDtIPltUj9VPqexuyGzobUxvbD0Ucam7ybTp42PnwtiPmRyqP6h1dfIxybO6x/uPFx/tOiE/0nMw6+ah5QvOdU6NPXWuJa2k7HXn63JnQM6fOss4eP+d37sh5n/OHLjAvNFz0vFjf6tF68HeP3w+2ebbVX/K61HjZ+3JT+8j2Y1cCrpy8Gnz1zDXOtYvXo6+330i6cbNjbEfnTf7NZ7fybr26XXT7851Zdwl3y+5p3au4b3y/+g/7P3Z3enYefRD8oPVhwsM7j3iPXjyWPv7SNfcJ9UnFU7OnNc9cnx3pDu2+/HzM864X4hefe0r/1P6z6qXdywN/Bf7V2ju6t+uV5FX/64VvDN9se+v+trkvtu/+u/x3n9+XfTD8sP0j8+PZTymfnn6e9IX0ZfVX+69N3yK/3e3P7+8XcyVcxa8ABiuamQnA620AUFMBoMPzGWWM8vynKIjyzKpA4D9h5RlRUTwBqIP/73E98O+mA4A9W+DxC+rTxgIQSwUg0Rugbm6DdeCspjhXygsRngM2xnzNyM8A/6Yoz5w/xP1zC+Sq7uDn9l+KiHxMFd3LWwAAAIplWElmTU0AKgAAAAgABAEaAAUAAAABAAAAPgEbAAUAAAABAAAARgEoAAMAAAABAAIAAIdpAAQAAAABAAAATgAAAAAAAACQAAAAAQAAAJAAAAABAAOShgAHAAAAEgAAAHigAgAEAAAAAQAAALqgAwAEAAAAAQAAALoAAAAAQVNDSUkAAABTY3JlZW5zaG90dAWcWwAAAAlwSFlzAAAWJQAAFiUBSVIk8AAAAdZpVFh0WE1MOmNvbS5hZG9iZS54bXAAAAAAADx4OnhtcG1ldGEgeG1sbnM6eD0iYWRvYmU6bnM6bWV0YS8iIHg6eG1wdGs9IlhNUCBDb3JlIDYuMC4wIj4KICAgPHJkZjpSREYgeG1sbnM6cmRmPSJodHRwOi8vd3d3LnczLm9yZy8xOTk5LzAyLzIyLXJkZi1zeW50YXgtbnMjIj4KICAgICAgPHJkZjpEZXNjcmlwdGlvbiByZGY6YWJvdXQ9IiIKICAgICAgICAgICAgeG1sbnM6ZXhpZj0iaHR0cDovL25zLmFkb2JlLmNvbS9leGlmLzEuMC8iPgogICAgICAgICA8ZXhpZjpQaXhlbFlEaW1lbnNpb24+MTg2PC9leGlmOlBpeGVsWURpbWVuc2lvbj4KICAgICAgICAgPGV4aWY6UGl4ZWxYRGltZW5zaW9uPjE4NjwvZXhpZjpQaXhlbFhEaW1lbnNpb24+CiAgICAgICAgIDxleGlmOlVzZXJDb21tZW50PlNjcmVlbnNob3Q8L2V4aWY6VXNlckNvbW1lbnQ+CiAgICAgIDwvcmRmOkRlc2NyaXB0aW9uPgogICA8L3JkZjpSREY+CjwveDp4bXBtZXRhPgqNIW+vAAAAHGlET1QAAAACAAAAAAAAAF0AAAAoAAAAXQAAAF0AAAhXHewLigAACCNJREFUeAHsnXlsVFUUxs9MW4YOLdMFikWwG1oqUaqyQ8UQsIjEKFEiiFAIiLhQFhGNCRYICIKCGCNELBZBpAFUNHFhsY2VRQRasGCDSIewWBPbGVpKp9v4RpuZdt7c29mXd7/3151z3rv3nu/79fXN20ZllhaSFqPRSDqdztL06yLauHq9npKSkvyqsWUw0XS2r1cF0P3LHED3j94OQa/8cAs1NDSQRtPVP7NoN4rJJNa4RqNB+s8Z004B/zRF09lkMlH/hfOt4v63R7eAfm17vjWIBhQIdQXiJk+VQM+1lgHQrVKgoSQFALqS3EQtTAUAOlMaJJSkAEBXkpuohakAQGdKg4SSFADoSnITtTAVAOhMaZBQkgIAXUluohamAgCdKQ0SSlIAoCvJTdTCVACgM6VBQkkKAHQluYlamAoAdKY0SChJAYCuJDdRC1MBgM6UBgklKQDQleQmamEqANCZ0iChJAVkoBsMBvP1/AKqLtyppDpRi+AKWEBPnJVjVQFPGFmlQENJCsj26Ja3AOCZUSVZjFosCgB0cCCEAgBdCJtRJEAHA0IoANCFsBlFAnQwIIQCAF0Im1EkQAcDQigA0IWwGUUCdDAghAIAXQibUSRABwNCKADQhbAZRQJ0MCCEAgBdCJtRJEAHA0IoANCFsBlFAnQwIIQCAF0Im1EkQAcDQigA0IWwGUUCdDAghAIAXQibUSRABwNCKADQhbAZRQY16OHROkp4cjIljM8mTc8epAoLg2MhoIC5tZVMVVX09w8HqapwF7XU1QZ81kELeu+c2ZQ8d07ABcIEPFcgGN78FpSgJ7/6OvV+4nHPFUYPQaPAtX1fUOW6NQGbjwz0yspKc81nu6l+/96ATEo3PIsGvLs+IGNjUN8qUL5wMRmPlfh2EEbv2scmUezUp63ZgL9Nd8jBHym8m9Y6ITSUo0DLrVt0fMxDASlItkcP5Nt0NX2T6YHC3UwhWk0mZg6J4FFArdEwJ3NSOrlguqpn5n2VCCrQY8dkU8aqFbJaq385QRUL55Pl2zyW4FdApVZT+oZNFDdksGyy599YRjWHv5fFfR0IKtATn51FKS/MldVcsSyP/jnwrSyOQPAqED/uEUpfkSebYKDOwIQE6KXTc6j+wnmZaAgErwLaOzMoc/snsgkCdEkS1h4doMt4CfoAQOdYBNA54oRYCqBzDAPoHHFCLAXQOYYFAvTIpFSKeXA0db8vk7qlJEvn8KNIrelC5pYWaq6royaDkYylZWQoKaHaspOEU5wcA9ulAHo7Meyb/gI9MjmNknJzKW7oECKVyn4a3M83L10i/ZaPyFB8iLue6EmAziHA16Br+/Wn9LdWUWSfPpxZOJdqrq2jC6vXUE3RAec2EGwtgM4x3HegqygtbyX1yh7HGd29VM2p01SxaIF0SNPgXgcK3Qqgc4z1BehhUdGU+XkhaeLjOCN7mJKu2JbOmEn1f/zuYUfK2Rygc7z0Nujh0TE06JuvSd2lC2dUu5TZTK1NTaQOjyBSu3b8/tvLuXTj12N2HYr5EaBzfPcq6NKXzMHfHaCI7tGcEUk6s3KT9B9vI8OREmq8opfdTxMR24N0o7Ko78wZFJmYyO3Lkjw9ZSrdqrzY6XpKXwGgcxz2Jujp6zdS/MjhzNEst4yWL1hEdWdOMdexT3S9I5UGvP8eaRIS7FPWz003aulE9ljrZ1EbAJ3jvLdA1951N2UWbGOOdHXPPtK/87aUNzPX4SVunzOPkmblMFex/Ie4unUzMy9CAqBzXPYW6Pfu2EVRaakOR7q4cRNV7d7pMOdKMP7hCZS+/E2Hm5ibm+lo1kiHOVGCAJ3jtDdAD9N2o6GHDjsc5f89+VqHOXeCvZ6aQmnSqUVHS9ns5+hmeZmjlBAxgM6x2Rugx40dT/1XLpeN0trYRMdGZ0lx9w5XZB22BTIL95K2r/wC1LUvv6LKtatZmyk+DtA5FnsD9BTpCZbEiY/KRrlSuIcub1gni3saiM+WDmHy5IcwdX9eojPP2B7G9XScUNseoHMc8wboGR9sodj7M2WjlE6bTvUXK2RxTwNqTSQNKyqSdSP62ReALkPCFvAG6AM2byXdwHtsnba1jo8b67M3Ro04Il0ksrs5rLWxse1QSTYVIQIAnWOzL0E/mjWKzM1NnNHdTw0r/kl29RWg41E6JlEAnSlNyCWwR+dYBtA54oRYCqBzDAPoHHFCLAXQOYYBdJs42n4ZlPLKYlvAR63y52dze7Z8uXe0nHtpHvc7D0B3pFpbDKDbxGGBYlvD85ax7Cw5A7qjs1idfblnzT9o3utiMBjM1/MLqLrQ8/tBXLUCoNsUY4FiW8PzlmigJ7a7ES+gb9MF6DZ4AbpNC2+0FPdKOtYFo87+1Xoipi/OowN0TxyRbwvQ5Zq4HAHocslYf6hBc4weyPej49DFBozK8syqH5bOrhbz5sHbFqBzzHMVdN3QkRQ1cGCHHm+bOEH6BbueHWKWD5cLdkjPg7bI4t4I3DF9muwX8yxv+rq8fUeH7puNRqopLqbGv650iCvxA0DnuOos6OExcTRo/35SR/hnr8eZslupc0uWSq+4K3Jr21DZCKBznHIW9OQl0q/WTQrdX62z7O2PjhrBUSL0UwCd46GzoDv68sfpNihTvjwLFAwFA3SOCwCdI06IpQA6xzCAbhPHW/e6VP98hK5/mm/r2EGLdT+Lg1WtIdzrYpXC9YYnoFteMXF23ouuD+rjLVJfW+rw1RudHbqw9oiuTteZ89buHAq6O39n5uNqjc6sb3/B6F8AAAD//zSYzqEAAAhOSURBVO2deWwUVRzHf9tr7UFb2qakpaEUirRy0wDFgChBiXgFEssRJaSApRgxVTSKCSEkEDEaEiIBYkVAIQqiwUYRMSBBqeEw5RK8cBsRlZIeQFe21zqzuI/Ozszrdrc7x+t3/3Dfe7/Zee/3+X0yzE5nR4dXerk2baErO7aS0a+sp0spb2mZatqa+QvI/csFNl585ChFxcWxvtzoaGmh76dMVoxZoTNscyWljBqhWkr15EnkbWtVjfsHEoYU0ugd2/zdkN+DqaUWz64mDHX9waynq7lDiaeVzKOCiufZRx0QnbHokQZEV2KE6BIPM4/ozpxcyiktpdSisRSXlkZt7n/p+tlzdLmykpovnlNWqxs9iK6EBdFNEt0RHU1DXn+TMibdq6xIp97N3y7R+bJnqL35RqfR4JoQXckJoks8DD+iOxw0Zs9eiu/fX1kNjV5HayudeGQGtd+4rhHVHwpVdEdMrP5OuxnhfReQdxXqXLz96n3HgOgScKNFz1+zjjKn3i/NHNzLc62OTj32qGrjfiVzVWP+gew5syk+K8vfZe9dfZljG9q0AdE5hTNSdGf2ACrau4ezGu3Qz2vX0bWqTxTBSFy1UExgww5E5xTNSNEHvryCsmc+oVrNmSXl1HzuNMVl5dDwjW+TMzNTsY3bVUs1c0sUYxBdgcPXgehqJmzESNGLqj4nZ0YGm1tunCl/lm7WnGRjsRmZNK6qivX9jWMTJ/ibvneIrsDh60B0NRM2YqToxUe+lf7opPzCp3XePP7rQxSTmMjWKDcCt4PoCjy+DkRXM2EjRoo+7sBBik1OZnPLjVNPzibPZRcbc0RF0cTvqlnf3zg2sVhqev1dioToCfmFlLf8RTaHGY3zSxaFPC1E56AzUvS75WvnAbcMeOrq6OzChdRS9w/J19fH7qsiZ3q6YsWtDY10YsZ0xVjiPSMV/c6dwStepaTBgzoP+dqB/yoEbqAnSuB2keqHe0uF3vpxeVGqmJGiJxaOoFFbKzU9aXe7KTohQTPW3UKFeh1dTxTNRUVgEKJHAKp/l0aKLs85aueHlDgozz991+/t7VQ95T7ytrd1ve3/W0B0JaruHiiUnw6916tv6oruk0zjv9gv/WUwJiiCpxeXSZcea4La1r8RRPeTuP0O0SUORh/RZfQxqek0Ztcuiu2bersSWv/1eun0osXU/ONZrShNOHxEc1wejJZvJ5a+1Aa+cI4eSCSy/V59RO+MNqf8ORow/6nOQ752w8kf6MKypdJFljtXWQI3isRVl1DvPwlcWzh93r0sXe1X7zsGjugSOTOO6P6CJeQX0Oj3t/u77P3Sxs309wfvsb5WIxKia81jpzHLi97Y2Oj9a+t2qt+903CuEN1w5BGb0IqiZ5UuYPn22l8Y4YjOHOiRhhVFx0/ppNKGKzpJ97ZrvaLkKzoasa6+jGrty05jEJ1TLbueunBSolAvL/L2aYcYROdUCaJz4NgsBNE5BTNX9KHSKYb6erd875b71zuP2uAsXzOEI7oSCy4vSjzMFF1Zjp7rQXQlS4gO0ZVG2LyHUxdOAXFE58CxWQiicwoWjujybjs8Hs7ezQn5Hp2Hy4sMPk5dJBThis5o2qCB6+jGFkmYm7qMxRb+bBA9fIbd2YMtRR8u3YuTXFjQnTwttW24v96xVDI6i8E5ug4YeTjYU5ekkWNo5JbNnD1ZO1T77jb6s3KTtRcZ5uogOgdgsKLLu0gcPpryKiooKV/9w2POFKaGWurr6fcNG6nh8FemrsOIySE6h3J3ROfsBiELEIDonCJAdA4cm4UgOqdgEJ0Dx2YhiM4pGETnwLFZCKJzCqYn+sWVq6j+4H7OJxGyGoH0Bx+moatXqZaFv4xKSPpOnU6Fa1ar4NQfP0E/VSwjb0eHKoYB6xGQn1k5dP0GShs/TrW4C6+tpIZDB1TjkR6w1B+MnP1zqejj3bo5W/FeFt3F9uJAlNOpm/2pEulBrn+4dOORClhKdDnJCYe+oej4+Ejli/2aSKCt2U3Hpz1gygosJ3pK8SQatv4tU2Bg0sgSOP/CcmqqPhrZSXT2bjnR5XUOfOkVyp41U2fJGLYjgSuf7iPXG2tNW7olRZdpZM8vpYHlZaaBwcQ9R8C15R26sk37Ed09Nwt/T5YVXV52dFIfkv/XhpkPTSNnv37Sb5c1frzMzw9REwh4pcdre+qu0dUvD9BV6eJC240mE1ahnNLSoiuXih4IhE4AoofODp+0EQGIbqNiYamhE1CJbubTdENPA58EAT4BWXTLPE2Xv1REQSB0Aqojuld6mXXjTehp4JMgwCcA0fl8EBWEAEQXpJBIg08AovP5ICoIAYguSCGRBp8AROfzQVQQAhBdkEIiDT4BiM7ng6ggBCC6IIVEGnwCEJ3PB1FBCEB0QQqJNPgEIDqfD6KCEIDoghQSafAJQHQ+H0QFIQDRBSkk0uATgOh8PogKQgCiC1JIpMEnANH5fBAVhABEF6SQSINPAKLz+SAqCAGILkghkQafAETn80FUEAIQXZBCIg0+AYjO54OoIAQguiCFRBp8AhCdzwdRQQhAdEEKiTT4BCA6nw+ighBQie5yubwNuz4i92d7BUkRaYAAUcLjs6jvvDkMhQMPGWUs0BCIgOqIDtEFqi5SYQQgOkOBhsgEILrI1UVujABEZyjQEJkARBe5usiNEYDoDAUaIhOA6CJXF7kxAhCdoUBDZAIQXeTqIjdGAKIzFGiITEBX9Fu3bpHTeZfhuXs8vWvepqZGSklJBecIE/B4PFRQsYzN4rvXRe41NTVJBUhhAaMavW3e2tpays3NNQovm6e3cQ7MF6IzFYxpQHRjOAeK/h/NVQ1VeHcNbAAAAABJRU5ErkJggg==;" parent="0bYfw5wELjY6Rt9RE2pR-11" vertex="1">
          <mxGeometry x="285" y="20" width="80" height="80" as="geometry" />
        </mxCell>
        <mxCell id="VfKHTl_9np38l_Bh859p-1" value="Systems Manager &lt;br&gt;Parameter Store" style="sketch=0;points=[[0,0,0],[0.25,0,0],[0.5,0,0],[0.75,0,0],[1,0,0],[0,1,0],[0.25,1,0],[0.5,1,0],[0.75,1,0],[1,1,0],[0,0.25,0],[0,0.5,0],[0,0.75,0],[1,0.25,0],[1,0.5,0],[1,0.75,0]];points=[[0,0,0],[0.25,0,0],[0.5,0,0],[0.75,0,0],[1,0,0],[0,1,0],[0.25,1,0],[0.5,1,0],[0.75,1,0],[1,1,0],[0,0.25,0],[0,0.5,0],[0,0.75,0],[1,0.25,0],[1,0.5,0],[1,0.75,0]];outlineConnect=0;fontColor=#232F3E;fillColor=#E7157B;strokeColor=#ffffff;dashed=0;verticalLabelPosition=bottom;verticalAlign=top;align=center;html=1;fontSize=12;fontStyle=0;aspect=fixed;shape=mxgraph.aws4.resourceIcon;resIcon=mxgraph.aws4.systems_manager;" vertex="1" parent="0bYfw5wELjY6Rt9RE2pR-11">
          <mxGeometry x="415.5" y="20" width="78" height="78" as="geometry" />
        </mxCell>
        <mxCell id="7GCxpn0eHg2p2ZtS-UhR-1" value="Amazon &#xa;Elasticache" style="shape=image;verticalLabelPosition=bottom;labelBackgroundColor=default;verticalAlign=top;aspect=fixed;imageAspect=0;image=data:image/png,iVBORw0KGgoAAAANSUhEUgAAALYAAACwCAYAAACiqZQZAAAMQGlDQ1BJQ0MgUHJvZmlsZQAASImVVwdYU8kWnluSkEAIEEBASuhNEKkBpITQAkgvgo2QBAglxISgYkcXFVy7WMCGrooodkDsiJ1FsWFfLKgo62LBrrxJAV33le/N982d//5z5j9nzp259w4AtBNcsTgP1QIgX1QoiQ8LYoxOTWOQngIyIAEa0AM0Lk8qZsXGRgFYBtq/l3c3ACJvrzrJtf7Z/1+LNl8g5QGAxEKcwZfy8iE+AABexRNLCgEgynnLSYViOYYV6EpggBDPl+MsJa6S4wwl3qOwSYxnQ9wCgJoGlyvJAkDzMuQZRbwsqKHZC7GLiC8UAUBjQOyfn1/AhzgdYjtoI4ZYrs/M+EEn62+aGYOaXG7WIFbORVHUgoVScR53yv+Zjv9d8vNkAz5sYNXIloTHy+cM83YztyBSjjUg7hFlRMdArAPxByFfYQ8xSsmWhScp7VFjnpQNcwb0IXbhc4MjITaGOFSUFx2l4jMyhaEciOEKQScLCzmJEBtAPF8gDUlQ2WyUFMSrfKH1mRI2S8Wf40oUfuW+7styk1gq/dfZAo5KH9Mszk5MgZgCsVWRMDkaYk2InaW5CZEqm5HF2ezoARuJLF4evxXE8QJRWJBSHyvKlITGq+zL8qUD88U2Zgs50Sq8rzA7MVyZH6yFx1XED+eCXRaIWEkDOgLp6KiBufAFwSHKuWPPBKKkBJXOB3FhULxyLE4R58Wq7HELQV6YnLeA2F1alKAaiycXwgWp1MczxYWxico48eIcbkSsMh58CYgCbBAMGEAGawYoADlA2NbT0APvlD2hgAskIAsIgJOKGRiRougRwWsCKAZ/QiQA0sFxQYpeASiC/NdBVnl1ApmK3iLFiFzwBOJ8EAny4L1MMUo06C0ZPIaM8B/eubDyYLx5sMr7/z0/wH5nWJCJUjGyAY8M2oAlMYQYTAwnhhLtcSPcH/fFo+A1EFZXnIl7D8zjuz3hCaGd8JBwndBJuDVBWCL5KcpRoBPqh6pykfFjLnAbqOmBB+F+UB0q4/q4EXDC3aEfFh4APXtAlq2KW54Vxk/af5vBD09DZUd2IaPkIeRAst3PIzUdND0GVeS5/jE/ylgzBvPNHuz52T/7h+zzYRv5syU2H9uPncVOYuexI1gDYGDHsUasFTsqx4Or67FidQ14i1fEkwt1hP/wN/Bk5ZmUutS6dLt8UfYVCibL39GAXSCeIhFmZRcyWPCLIGBwRDznYQxXF1c3AOTfF+Xr602c4ruB6Ld+5+b8AYDf8f7+/sPfuYjjAOz1gtv/0HfOjgk/HeoAnDvEk0mKlBwuvxDgW4IGd5ohMAWWwA7OxxV4Al8QCEJABIgBiSAVjIfRZ8N1LgGTwDQwG5SCcrAErARrwQawGWwHu8A+0ACOgJPgDLgILoPr4A5cPV3gBegF78BnBEFICBWhI4aIGWKNOCKuCBPxR0KQKCQeSUXSkSxEhMiQacgcpBxZhqxFNiE1yF7kEHISOY+0I7eQB0g38hr5hGKoBqqLmqA26HCUibLQSDQRHYdmoRPRYnQuughdjVajO9F69CR6Eb2OdqIv0D4MYOqYPmaOOWFMjI3FYGlYJibBZmBlWAVWjdVhTfA5X8U6sR7sI07E6TgDd4IrOBxPwnn4RHwGvhBfi2/H6/EW/Cr+AO/FvxGoBGOCI8GHwCGMJmQRJhFKCRWErYSDhNNwL3UR3hGJRH2iLdEL7sVUYg5xKnEhcR1xN/EEsZ34iNhHIpEMSY4kP1IMiUsqJJWS1pB2ko6TrpC6SB/U1NXM1FzVQtXS1ERqJWoVajvUjqldUXuq9pmsRbYm+5BjyHzyFPJi8hZyE/kSuYv8maJNsaX4URIpOZTZlNWUOsppyl3KG3V1dQt1b/U4daH6LPXV6nvUz6k/UP+ooaPhoMHWGKsh01iksU3jhMYtjTdUKtWGGkhNoxZSF1FrqKeo96kfNOmazpocTb7mTM1KzXrNK5ovaWSaNY1FG08rplXQ9tMu0Xq0yFo2WmwtrtYMrUqtQ1odWn3adO0R2jHa+doLtXdon9d+pkPSsdEJ0eHrzNXZrHNK5xEdo1vS2XQefQ59C/00vUuXqGury9HN0S3X3aXbpturp6PnrpesN1mvUu+oXqc+pm+jz9HP01+sv0//hv6nISZDWEMEQxYMqRtyZch7g6EGgQYCgzKD3QbXDT4ZMgxDDHMNlxo2GN4zwo0cjOKMJhmtNzpt1DNUd6jvUN7QsqH7ht42Ro0djOONpxpvNm417jMxNQkzEZusMTll0mOqbxpommO6wvSYabcZ3czfTGi2wuy42XOGHoPFyGOsZrQwes2NzcPNZeabzNvMP1vYWiRZlFjstrhnSbFkWmZarrBstuy1MrMaZTXNqtbqtjXZmmmdbb3K+qz1extbmxSbeTYNNs9sDWw5tsW2tbZ37ah2AXYT7artrtkT7Zn2ufbr7C87oA4eDtkOlQ6XHFFHT0eh4zrH9mGEYd7DRMOqh3U4aTixnIqcap0eOOs7RzmXODc4vxxuNTxt+NLhZ4d/c/FwyXPZ4nJnhM6IiBElI5pGvHZ1cOW5Vrpec6O6hbrNdGt0e+Xu6C5wX+9+04PuMcpjnkezx1dPL0+JZ51nt5eVV7pXlVcHU5cZy1zIPOdN8A7ynul9xPujj6dPoc8+n798nXxzfXf4PhtpO1IwcsvIR34Wfly/TX6d/gz/dP+N/p0B5gHcgOqAh4GWgfzArYFPWfasHNZO1ssglyBJ0MGg92wf9nT2iWAsOCy4LLgtRCckKWRtyP1Qi9Cs0NrQ3jCPsKlhJ8IJ4ZHhS8M7OCYcHqeG0xvhFTE9oiVSIzIhcm3kwyiHKElU0yh0VMSo5aPuRltHi6IbYkAMJ2Z5zL1Y29iJsYfjiHGxcZVxT+JHxE+LP5tAT5iQsCPhXWJQ4uLEO0l2SbKk5mRa8tjkmuT3KcEpy1I6Rw8fPX30xVSjVGFqYxopLTlta1rfmJAxK8d0jfUYWzr2xjjbcZPHnR9vND5v/NEJtAncCfvTCekp6TvSv3BjuNXcvgxORlVGL4/NW8V7wQ/kr+B3C/wEywRPM/0yl2U+y/LLWp7VnR2QXZHdI2QL1wpf5YTnbMh5nxuTuy23Py8lb3e+Wn56/iGRjihX1FJgWjC5oF3sKC4Vd070mbhyYq8kUrJVikjHSRsLdeGPfKvMTvaL7EGRf1Fl0YdJyZP2T9aeLJrcOsVhyoIpT4tDi3+bik/lTW2eZj5t9rQH01nTN81AZmTMaJ5pOXPuzK5ZYbO2z6bMzp39e4lLybKSt3NS5jTNNZk7a+6jX8J+qS3VLJWUdszznbdhPj5fOL9tgduCNQu+lfHLLpS7lFeUf1nIW3jh1xG/rv61f1HmorbFnovXLyEuES25sTRg6fZl2suKlz1aPmp5/QrGirIVb1dOWHm+wr1iwyrKKtmqztVRqxvXWK1ZsubL2uy11yuDKndXGVctqHq/jr/uyvrA9XUbTDaUb/i0Ubjx5qawTfXVNtUVm4mbizY/2ZK85exvzN9qthptLd/6dZtoW+f2+O0tNV41NTuMdyyuRWtltd07x+68vCt4V2OdU92m3fq7y/eAPbI9z/em772xL3Jf837m/roD1geqDtIPltUj9VPqexuyGzobUxvbD0Ucam7ybTp42PnwtiPmRyqP6h1dfIxybO6x/uPFx/tOiE/0nMw6+ah5QvOdU6NPXWuJa2k7HXn63JnQM6fOss4eP+d37sh5n/OHLjAvNFz0vFjf6tF68HeP3w+2ebbVX/K61HjZ+3JT+8j2Y1cCrpy8Gnz1zDXOtYvXo6+330i6cbNjbEfnTf7NZ7fybr26XXT7851Zdwl3y+5p3au4b3y/+g/7P3Z3enYefRD8oPVhwsM7j3iPXjyWPv7SNfcJ9UnFU7OnNc9cnx3pDu2+/HzM864X4hefe0r/1P6z6qXdywN/Bf7V2ju6t+uV5FX/64VvDN9se+v+trkvtu/+u/x3n9+XfTD8sP0j8+PZTymfnn6e9IX0ZfVX+69N3yK/3e3P7+8XcyVcxa8ABiuamQnA620AUFMBoMPzGWWM8vynKIjyzKpA4D9h5RlRUTwBqIP/73E98O+mA4A9W+DxC+rTxgIQSwUg0Rugbm6DdeCspjhXygsRngM2xnzNyM8A/6Yoz5w/xP1zC+Sq7uDn9l+KiHxMFd3LWwAAAIplWElmTU0AKgAAAAgABAEaAAUAAAABAAAAPgEbAAUAAAABAAAARgEoAAMAAAABAAIAAIdpAAQAAAABAAAATgAAAAAAAACQAAAAAQAAAJAAAAABAAOShgAHAAAAEgAAAHigAgAEAAAAAQAAALagAwAEAAAAAQAAALAAAAAAQVNDSUkAAABTY3JlZW5zaG902/X+MwAAAAlwSFlzAAAWJQAAFiUBSVIk8AAAAdZpVFh0WE1MOmNvbS5hZG9iZS54bXAAAAAAADx4OnhtcG1ldGEgeG1sbnM6eD0iYWRvYmU6bnM6bWV0YS8iIHg6eG1wdGs9IlhNUCBDb3JlIDYuMC4wIj4KICAgPHJkZjpSREYgeG1sbnM6cmRmPSJodHRwOi8vd3d3LnczLm9yZy8xOTk5LzAyLzIyLXJkZi1zeW50YXgtbnMjIj4KICAgICAgPHJkZjpEZXNjcmlwdGlvbiByZGY6YWJvdXQ9IiIKICAgICAgICAgICAgeG1sbnM6ZXhpZj0iaHR0cDovL25zLmFkb2JlLmNvbS9leGlmLzEuMC8iPgogICAgICAgICA8ZXhpZjpQaXhlbFlEaW1lbnNpb24+MTc2PC9leGlmOlBpeGVsWURpbWVuc2lvbj4KICAgICAgICAgPGV4aWY6UGl4ZWxYRGltZW5zaW9uPjE4MjwvZXhpZjpQaXhlbFhEaW1lbnNpb24+CiAgICAgICAgIDxleGlmOlVzZXJDb21tZW50PlNjcmVlbnNob3Q8L2V4aWY6VXNlckNvbW1lbnQ+CiAgICAgIDwvcmRmOkRlc2NyaXB0aW9uPgogICA8L3JkZjpSREY+CjwveDp4bXBtZXRhPgqtykIIAAAAHGlET1QAAAACAAAAAAAAAFgAAAAoAAAAWAAAAFgAAAzgWlzOEgAADKxJREFUeAHsXQl4VcUVPtkTQlYIECAhgGkIS8Agu1UJWqSCFfhYRJbKVkjRIoW2Vj+l2KaNWBDFpaCUSgABIdYGZA3CVyMQIYBCZCcLS/YVspGkc+7zpcO720vey7s3N2e+D+68ufPmzvnP/yZzz5wz41TP0j83Z8LGhCygRAgYBQEnIrZRVEly8AgQsXk0KG8YBIjYhlElCcIjQMTm0aC8YRAgYhtGlSQIjwARm0eD8oZBgIhtGFWSIDwCRGweDcobBgEitmFUSYLwCBCxeTQobxgEiNiGUSUJwiNAxObRoLxhECBiG0aVJAiPABGbR4PyhkGAiG0YVZIgPAJEbB4NyhsGASK2YVRJgvAIELF5NChvGASI2IZRJQnCI0DE5tGgvGEQIGIbRpUkCI8AEZtHg/KGQYCIbRhVkiA8AkRsHg3KGwYBIrZhVEmC8AgQsXk0KG8YBIjYhlElCcIjQMTm0aC8YRBwKi4urt/6WQ5s/SzPMEKRIIQAjdjEAUMiQMQ2pFpJKCI2ccCQCBCxDalWEoqITRwwJAKaEzs0xAtiHmlnSHBbu1CHjxZARlaFJjBoSuydCYOgfTt3TQSnhzoGgfyCapg4PdUxD+OeohmxRwwNhLjXI7muUNaoCPzxT+nw9bFCh4qnGbE/WB0FvXv5OFRYepg2CJz/oQwWvnTWoQ8nYjsU7tb5MCJ269S74aUmYjMVp54qgm27bkJBYbXhFW4kAT09nWHSLzpDzKNBIrGI2Bwke/bnQPzqy1wJZfWKwMK53WDqxK6y3SNiW0CTfaMCZi1Ig3v36i3u0Ec9IODkBLD+3f4Q3rOtYndaFbFHskWZ5S/3UgQEb2Zm34UZ89JU61EFxyOw5s0+MKCfv+qDV8RfgENf5avWs2cFzawiKMTnWwdDgL+bqjz/3n0LVq292lDP3d0ZpkzsDM9NDgEXFzZs2JBqa+th87YsYV5fXV0ntOTmhu0Hw/QpoXZpP2FbJmzbeQtqahzTfnPjgyDNmNoV5s7qpop8ZWUdjB7/jWo9e1fQlNgoTI/ubWDSM53hycc7gLOzPEmfmZYKRUWmF8oP346CyAj72sDTL5TBgsUmWyu1L6YZjw9OQZKThsvqCweItLMlsHVHNruWihtzQInmxOZlfCKmPby6LIIvasjvO5QDcW9dhrZtXWH3jiEN5fbMPDXpODgxrSVtH2zPZhvaGjv5hJBvzvbr6+ubFZ/y8nvCX8vYud0b5OIzJ08XwZKXz/NFmuR1RWxEYOyYDrDsxXARGPfYlGHU2BS2WtkWPljdX3TfHgULXzojNEPtS6OJ+Jz/oRwSPoqGkC5eokrbd2XDe+szROVaFOiO2AhCEhuRfdjIbJmennoCugR7ELEtgfnxsyN+mEjsI1+OEPWgjhmuRv78a1G5VgW6JPbi2B4wflywCBMlxdUxZOtM72ai71kWODuD5PxQrf3aWsuWpD9j+1IvtVq3bw98rmVUwt5d4qlg2tliWPz7c9KAaFCqS2JPn9oF5s0KE8Gx+A/fQ1VVreSIvWFTBvxrS7boO1IFs6Z1hdkzxG/0SsSj9oE5Mp1h5tdKyTn8wa9y4Y34S1Jwa1KmS2LHr4iEoYMCRYDMWXQa3N2ciNga/jAvXbkLB78YJtLN5avlMOfXpncU0U0NCnRHbPwzfug/I9hUQYzGmInHISzUk4itIbFxjo2mPqmpFlp9yspqxIrToER3xP7La73g4WHiUDGzoV/OKkJTBdNUATkkZdWxFz5I7HdW9oX+ff1EdL1bUQtjJhwTlWtRoBtid+rkCW+8EgE/eUDa72DLjiz4x4ZMWXOfvRSHSmhOYrT09pHYQwcFQPyK3pJ8zbpxF5bHXYTLV+9I3ndUoabE7tjBA+b9MhQeezgI3NjcWS6hDfvxcSnA1h6I2AwkLV9+kdiYErcMgsAA+XhVtFIdOpIH6zdmQk5ulfAdR/6nGbE9PV1gX+JQq2SNf/sS7NmXK9SlqYg+iB3e0xs+WjvAKv2NHn8MKiuttJVa1aJ6Jc2IPWdmCMx8NlS1h0l7b8PKNVca6hGx9UFsVAg6osktrTcojGU+2ZoJH3+SxRc1e97p+vXr9YlJJZCYVNbsD+MfYE0w75cHcuBvq+4PNiBi64fYqM9nJ3WBBbPDeNWK8q3KH1uJ2Oho81rcBTiZViwCqaUQW9RxVnDilEmewdHSPswtYYHJPMfm5Qt/wBv+urw3BMnsEUPEZmgtWnoWvjsn/9ejJRCbV3pz5PXw8igl18AH/WFVXB/RLSI2gySGefCh879ccgSx17wZJXp8wqeZVi/Zi75s5wIk9vSp4veT3/zO5E/enOZKqRHbLB4u2uDijWUiYjNEtCa2kuIsFabHz839w1fCh4jNGCE3x26JxEaF+vq6QXBHd2gXiP/chD0J27fzgDZezuDu7sL+sSuz1WMgQzULEcMAZQwVKymtgcKiGihg/zBCCG2+t3OroZSVNyWImYhtGm40M/dpSex+faTDynAhKP3HBQip0djDw4WFpHlDVF9fiOrjCz17eEOAnzsjq1Rt28twQaq4pAauXr8D59JLIe1MKaRfLIcKtnQtlyJZIIarTByo0rsL357SHJ5GbB4pibyWxJbojmSRj48bDB/iD6NHdYB+vX2FUVeyooMLcST/Pr0EDiTnwdGUImF0t2cXiNg2oKlXYvuzqPnJ44PhqdGdwN9PPYLeBgjs9tVS5lG3e18ObE+8BYV22EGLiG2DavRG7CEP+UPs/O4QFtLGBqm0/yo6Ib237jp8c6KoyZ0hYjcZOm1fHvluo+311WXhig49fP2Wkse5+Z9XXoTUk+JFLjUZiNhqCCnc13rERiesuNd7wcAB0quACl2/71ZNTT3kFVRBZtZdyGJbsuXmVUNefhXgTv5FxTXM8sGsH2xOjPNis5XD1dVJ8GZ0c0WLiRMLXHaBoPYe0CHIAzoxj8dg5sIb1q2NUObG6tqSTn9XDEtfSW/YrMeatojY1qAkU0dLYgcxAm1aFw1ebIfQxiQk67dpRWxH2GJhdTQ3r0pwpW1MG42tixYXJHxUXx8YMjAAotkPEU2KjUkYpDHzV6esdh8lYjcGXYu6WhEb7c2JmwcBjppqqYrtaPTflHzmIHabmdvKWRS8/IqoWlv2vI9283Fs/5UB/fxYtFF7RV9283NxNRd300L7uFoiYqshpHBfK2Jv2RDN9iYRb/bCdxX36F6/MQMuXNI2CoTvk1I+MqIt20cvFB56MECpGty4VQHTZp9SrIM3idiqEMlX0ILYw4cECF5ocr1KPpILb717De7cuSdXRdfluP3b0hd6wMhHxJuvmztuzUFHRGwzWk24akHs91dFQZ9I8aojLnHHssN/Ll1pGSO0GtzoRvr+qv7CEr5l3XPpZRC7xOQsZXnP/JmIbUaiCVctiL03cZjkC+OE51INdzQIvmDuYu8SlqmCvUg+qbKtLxHbErVGfNaC2Ae+GC45imkRk9cIqJpUFf1a9n8ujimtZubHJ55OUWyTiK0Ij/JNPREb7c3zXjgj2J+Ve90y7uJpxxhoK7WpfusidkIGbNxs3b539lKtnohtlml7Yrawd4l5IcVc3lKuaAac/3yo4kFHROxm1qYeiW0W+UByLmxIyIKbtyrNRbq+duroAc9PD2GnQnRU7ScRWxUi2yrYm9hS2wjHLjlzny1abo4tJ0kZCyrez0j+LVtpTDnedKciufZtKQ8N8RIWaX4W07FRXoiWxI4IN1lQ+L4obbPcsvyxDTAV4RVjzs9/8bRNxDa3Y75mMH+QY6mFbEm9BNIvlANG0zsieTP7dAQz4UX3x5XGQOjezbvJj5Ui9rp3BljVHm4jTMRWgcreI7bU4+xNbKlnlLPFHJyy4Da62TcrBX8M9CEpKKxhCz21UMOWsmuZAxQuaeNfFYyKMW0M78yuJmcoXx9X5l3oKviAYDhZ9zAv6MHI2znYE3xZsIM9I3SI2FJatGNZU4ndmMOVrCE2Eg0d9f2YD4mREoaPoQej5Y/CFmLj4VNKf6X0F8zbgqYiSD5rj6uzltiPsbNTfjo8EBbODVP1I9E7+fNZBM2HH19jYWP5cHgP22fcwterqcTmj8OTw4CIzZBp6oiNoAoHdE5gB5hOUT7AdNFv1V8eccRGYpsT+kVPm9QZRrNzJ73biA94MtfT07Wqqg6Sj+bBpk+z4QabDpnT4d3iDfSliL327/KnsAkHvG5nB7zuvAnmA17N7VteidgMEVuIbQmotZ+lrCKWxObbascWOmLY0dijHg2CiHAfYW7M39cqj33GyPVktk3vwSMFcPv2/8nM9+nwbvEho5bE5uvbmtcTsf8HAAD//1zr5ywAAAxiSURBVO2dCZAU1RmA/92dnWNn2ItldxaWa5c7CghC5BJEwCBHgmUsTAoqGhOJlkQTzWXUpFIYKxWyiUSjaAmUR4GC0XDFiCAkQAHRcKwgsMAuWfZm73N2dzbv76FJ0z0955ud1zN/V/V29+vXr//3v296u9/7//8l9LJlw1ulsPHtMujL5S+F42HcmH6aW85dfAh6eno16TwSPv7bdDAnJ9xQVC+71Zy7D96QpneQlpbMZHbA1EnpMOHmNMh1WiHFlqSXnUt6R4cbKqraoeh0Mxz9rB6KzrRAXZ0roLL37pwOSYk31tfV1Qvzlx4K6PpgMyUlJcDeHdM1l53+shl+8MRJTXokExIaGhp639laBZu31kTyPpqyjQi2phLXElJSTJCTbYas/mbIHmAGZ7YFnDkWSEs1g8WSABZzEpjNiWxFyBKgq8sNLpcbOnHtdENTcxdUVXdCJVurq11Qe9Ul7be0dOvdMqB0hAxhUy5xA7ZRntjDh6UwUEzKNvK7397eA2fPt17PF+4T+3pBBtn5hIFt8gP26JF2sIXxX+fEqSbA/3q4CPXEFh3sSRPS4JmfjoLMDLNHe0H8/f7q4/EN9nYGtsn3ExvBXv/ixCC0emNWhHr77gpYu+4igY2qCfRV5PU/T4CRBY4btRngUbyDvYeBnRxhsOWmmP/1w9K3kTDv2CI/se12E+za+lVZd0Fv4x5s9rGcrPpYVr9jh/vElhvllTdK4N33y8X5eCSwA+8VkRvRKFtv3xSRAvvVDSWwZRuBHdCrSF88sRHSOxYdBLfbKLgGLmegH4/hvGPL0hDY1zQRyDu2HtgNjV3w4a4KWae624OH6/x+POLFxz6vhyefPq1bjhFPrHl2DMyc1l8jurcn9oxpmZp8egnYpblogVNzmsC+phI9sOWPEMxmZ/3D29+dqlFiyeU2ePCR45p0bwnKwR5v/5rla+obuuDnvzoNZ862yEmG3I4Z7YDfPjdWtxdJDba6n9tfpceMcsDLfxivybZ+Ywm899cK+PjDaZpzURmgEe0dW6OVMBIC+XhUF198sRVefOUiYP+skZZbxqfCY6vyoWC43afYarB5fTz6uimB7Us7IZwLBWz5NjgquPPvlfDBzkoovdwuJwu1HTY0BZYtccLdC3KYqUBiQLIR2AGpKfRMeq8ioZeovTIcsJWl4evMmbPNsOfTGjjyWQNUVHRcH21T5ovkfgIbZ3HmWGHGbRlwx6wsyc4mUWUHEsj9CexAtBRGnm8szoEnHh0RRgn+L+UFtrc7NTM7jkslrXD+Qit8eb4FLl5qg6t1XdDS2i3Zgni7xl9aMnvqWq1JkJtjBjQhGJGPqwNGjXCAg/Xp81iiAXbhS8XwwY4qHuIHXEZCtN6xE9l/zn07ZwQsaCgZIwm2P3nc7l4GeC9097ihu5tt2YpQMX1Lo4EmU6Jkx4Ewmy2JEMLD158IUhcm6lm5RAPsaHSnRg1sVDb+K128MBsWzstR6p7b/h9fvuC3uw9tHZZ9+xj86NHhcPuMLG73jmZBaN66dt0FeHP9JMmqUCmLN7Aff6RAmYXb/u49VbBjdzX7gV2zkuJWsv+Cogq2f/H45vDW3Ydgy/bYaDC0ZGEOLL83TzI95Xv3yJaGffubt11h//IrAa0accGuNzSXVS5qsJXnYmmfwFaArWxYm80Ec2ZlwtKFThg90qGxa1bmjcY+/iDPFbfAP/ZWw0ef1EIzs+lWLwR2FDxo1I3QF8f+nti+ZMhgZrO33pLK1nS4aVwqDHTa2KuUryv4nUOIa2o74dQXjVKvzImiZqis7PB7AwKbwPYLibcM+OHXP9MMQ/KsUJBvZ1ub5EWTmZHMnCKSpZ4ME8uDH4b4PYFddrggqPjeid2IuHZ09gCOfKLnTHWNx5PmUkkbXCptY8eukHtZCGwC20NcjP0lsAnsGEPaUx0Cm8AmsGNMA9QrotMrEgvtTE9semLHAseaOhDYBLYGilhI2L9ba7JAAzSx0LKqOnjrx8YsJ4oaYfVTRarcxj68/5uDYNWDwzSVILA1KjF+gh7YWLPDR+vg2TVnpQhNRq4pDqFv3jBZ6l/3Vg8C25tWDJ7mC2y5apu3lcGGt8qgo8NjbyGni75Fc9fvrsiD++7J8ykqge1TPcY8GQjYcs2KTjfBoSN18M57V/rcqUCWwd8Wh/SnTMqAlffnScP8/vLjeQI7EC0ZLE8wYCurdv5CC+w9UAv7/3UVrpT7t9FQXst7fzAbtp81PRPunD2AOSH49m/0du+4ATta0Va9KT3SaaGCrZarvsEFX5xpZh+dTVDMPGhKy9qhvr6Lm90xeo6npydD3kCrBC8aXqH3eWZ68PEL1bLHDdjR8qBRK7wvjnmBrScrGjdheGB0D0OjJgwPLIULZkZOHSxcMK69LDAPhhPGjzwML2yzJUqhEtBoCsNNWJg3jWwspXefcNIJ7HC0J+i13sBG8AqZp83qh/PDCqcrUpXxh1X40gV45iejNWIR2BqVGD9BD2wM0oPLlMnp8NDKoYBBYYy44OvRa5tK4T8nGiXxaYAmjkce8Yktgy3DbLEkweyZmXDPklwYO1o7nYicL9pbfPXBYDTvby9nH7Z1GrttApvA9slo3iCb5CY2bUqmFA7Bau0j1xmVVOjLiD00h47Ww4GD/ntoCOx4BpvNBzN/qedVRMWR7iE6/Q7MtUI+i/0xaoRdivsxOC8FUvuZwMqe9qG6jKFXDQ4MNTX3wOWyNsmn8VxxK1xk3jTlLEiPMg6hrnCKEwQ2ga3Agc+u1OvBIMcfAQZfxxBknsmVsOcEY4y4PXFHWLyRTtZrgq9EvBcCm8DmzZQQ5RHYBLYQIPIWgsCOa7AjN6Enb1CDLY/AJrCDZcYQ+T/dNUMzikkDNIZouuCE9DpAE8EpmIOTjn9uAjtOntg72dR63sLxrnr8hOGn6FD/LHDi18IXblInS3Ysi+49okmPtYS48lJ/4ddjYdpU7xMJ/eZ3Z2HPvtqYaN8Fdw6Ap58c5bUu6Cn0s+fOeD0XS4lxBTYOpry2Tn965UulrfD82vNwTjH/upEae+7sLFixPI8NHOnbaX/vseNs4Of/88sbqX7ByBpXYKNifr9mnOR14ktJNbUueHPLZdj1UY3G/sLXddE4h/ED75qXxbxohkDOAItPETBu9lO/jK1p//QqHHdgo63zlo23Qk62bwhkhZWVtzPAq2A/s80ouxJd7xlZJqfTCnNv7w9fm5cNQwenyMk+t5VVnbD8gX8L6+bmU/gQTsYd2Kgj9FB59U/jYWRB8Oap5Sx878lTnnC+GJ8ao6FGYjgc5cThePwBjiyww+SJaTBpYjoMyrVpuvAwr68F5Xz4hye5efj4upco5+ISbFn5D6wYDN/51hD5MOQtmo+itwzOKoChgGswFDBbGxu7pRDBncxzRl7RkAmBTUlJklb0mnHYkyCDuYLlsidxNnudwDDE2HsTyqxg6kq8wXq8Nr1dpk6O+eO4BhtbNy0tGX7x4xFwGzNJjaUFez+eX1sMTU3amQ5iqZ56dYl7sGXFoPPsQyuHwKK7nCGbncplRWuLZq/b2aSrr2/6b9wCLeuewJY1odhOZl7h9y3LhamTM7i8DiiK5r7bw2A+cqyezWNeDp9fcwnjfhMDFkhg+2k0dCiYM6s/zJmZJc1Tju/H0Vxw7kj0ojlw6Crs++fVgOaiiaa80bo3gR2k5nE2sfxhVvjK2FS4eVw/yB9uZ3HyLGDj7C7W3uFmH6IdbPbfNil+CTrqlrA53eWp7oIUO+6yE9gcmxwHSxwOE/RzJLHJlUxSvBA76/HwxBBBDxrmK8l6UDqZt0yny+M1097uZlNVu1iPSjeb0q4b2phfY6S6DzlWVfiiCGzhm4gEDEUDBHYoWqNrhNcAgS18E5GAoWiAwA5Fa3SN8BpIiKdoq8K3BgnITQP0xOamSipIJA0Q2CK1BsnCTQMENjdVUkEiaYDAFqk1SBZuGiCwuamSChJJAwS2SK1BsnDTAIHNTZVUkEgaILBFag2ShZsGCGxuqqSCRNIAgS1Sa5As3DRAYHNTJRUkkgYIbJFag2ThpgECm5sqqSCRNEBgi9QaJAs3DRDY3FRJBYmkAQJbpNYgWbhpgMDmpkoqSCQNENgitQbJwk0DBDY3VVJBImmAwBapNUgWbhogsLmpkgoSSQMEtkitQbJw0wCBzU2VVJBIGiCwRWoNkoWbBghsbqqkgkTSAIEtUmuQLNw08D+zpQT+gNthQwAAAABJRU5ErkJggg==;" parent="0bYfw5wELjY6Rt9RE2pR-2" vertex="1">
          <mxGeometry x="350" y="240" width="82.73" height="80" as="geometry" />
        </mxCell>
      </root>
    </mxGraphModel>
  </diagram>
  <diagram name="unoptimized" id="iRq_DaMa9kYsCs5p58aX">
    <mxGraphModel dx="1266" dy="679" grid="1" gridSize="10" guides="1" tooltips="1" connect="1" arrows="1" fold="1" page="1" pageScale="1" pageWidth="1169" pageHeight="827" math="0" shadow="0">
      <root>
        <mxCell id="PMldCsfoqPfyiIIAnVPi-0" />
        <mxCell id="PMldCsfoqPfyiIIAnVPi-1" parent="PMldCsfoqPfyiIIAnVPi-0" />
        <mxCell id="OPbV3XfFa1ghP6519C6w-2" value="" style="rounded=0;whiteSpace=wrap;html=1;" parent="PMldCsfoqPfyiIIAnVPi-1" vertex="1">
          <mxGeometry x="50" y="80" width="700" height="400" as="geometry" />
        </mxCell>
        <mxCell id="PMldCsfoqPfyiIIAnVPi-2" value="AWS Cloud" style="points=[[0,0],[0.25,0],[0.5,0],[0.75,0],[1,0],[1,0.25],[1,0.5],[1,0.75],[1,1],[0.75,1],[0.5,1],[0.25,1],[0,1],[0,0.75],[0,0.5],[0,0.25]];outlineConnect=0;gradientColor=none;html=1;whiteSpace=wrap;fontSize=12;fontStyle=0;shape=mxgraph.aws4.group;grIcon=mxgraph.aws4.group_aws_cloud_alt;strokeColor=#232F3E;fillColor=none;verticalAlign=top;align=left;spacingLeft=30;fontColor=#232F3E;dashed=0;labelBackgroundColor=#ffffff;container=1;pointerEvents=0;collapsible=0;recursiveResize=0;" parent="PMldCsfoqPfyiIIAnVPi-1" vertex="1">
          <mxGeometry x="50" y="80" width="700" height="400" as="geometry" />
        </mxCell>
        <mxCell id="PMldCsfoqPfyiIIAnVPi-4" value="API Gateway (HTTP)" style="sketch=0;points=[[0,0,0],[0.25,0,0],[0.5,0,0],[0.75,0,0],[1,0,0],[0,1,0],[0.25,1,0],[0.5,1,0],[0.75,1,0],[1,1,0],[0,0.25,0],[0,0.5,0],[0,0.75,0],[1,0.25,0],[1,0.5,0],[1,0.75,0]];outlineConnect=0;fontColor=#232F3E;fillColor=#8C4FFF;strokeColor=#ffffff;dashed=0;verticalLabelPosition=bottom;verticalAlign=top;align=center;html=1;fontSize=12;fontStyle=0;aspect=fixed;shape=mxgraph.aws4.resourceIcon;resIcon=mxgraph.aws4.api_gateway;" parent="PMldCsfoqPfyiIIAnVPi-2" vertex="1">
          <mxGeometry x="40" y="270" width="78" height="78" as="geometry" />
        </mxCell>
        <mxCell id="PMldCsfoqPfyiIIAnVPi-5" value="Amazon Aurora RDS" style="sketch=0;points=[[0,0,0],[0.25,0,0],[0.5,0,0],[0.75,0,0],[1,0,0],[0,1,0],[0.25,1,0],[0.5,1,0],[0.75,1,0],[1,1,0],[0,0.25,0],[0,0.5,0],[0,0.75,0],[1,0.25,0],[1,0.5,0],[1,0.75,0]];outlineConnect=0;fontColor=#232F3E;fillColor=#C925D1;strokeColor=#ffffff;dashed=0;verticalLabelPosition=bottom;verticalAlign=top;align=center;html=1;fontSize=12;fontStyle=0;aspect=fixed;shape=mxgraph.aws4.resourceIcon;resIcon=mxgraph.aws4.rds;" parent="PMldCsfoqPfyiIIAnVPi-2" vertex="1">
          <mxGeometry x="580" y="270" width="78" height="78" as="geometry" />
        </mxCell>
        <mxCell id="PMldCsfoqPfyiIIAnVPi-6" value="AWS Lambda" style="outlineConnect=0;fontColor=#232F3E;gradientColor=#F78E04;gradientDirection=north;fillColor=#D05C17;strokeColor=#ffffff;dashed=0;verticalLabelPosition=bottom;verticalAlign=top;align=center;html=1;fontSize=12;fontStyle=0;aspect=fixed;shape=mxgraph.aws4.resourceIcon;resIcon=mxgraph.aws4.lambda;labelBackgroundColor=#ffffff;spacingTop=6;" parent="PMldCsfoqPfyiIIAnVPi-2" vertex="1">
          <mxGeometry x="206" y="270" width="78" height="78" as="geometry" />
        </mxCell>
        <mxCell id="PMldCsfoqPfyiIIAnVPi-7" style="edgeStyle=orthogonalEdgeStyle;rounded=0;orthogonalLoop=1;jettySize=auto;html=1;exitX=1;exitY=0.5;exitDx=0;exitDy=0;exitPerimeter=0;" parent="PMldCsfoqPfyiIIAnVPi-2" source="PMldCsfoqPfyiIIAnVPi-4" target="PMldCsfoqPfyiIIAnVPi-6" edge="1">
          <mxGeometry relative="1" as="geometry" />
        </mxCell>
        <mxCell id="PMldCsfoqPfyiIIAnVPi-8" value="" style="rounded=0;whiteSpace=wrap;html=1;labelBackgroundColor=none;fillColor=none;dashed=1;container=1;pointerEvents=0;collapsible=0;recursiveResize=0;" parent="PMldCsfoqPfyiIIAnVPi-2" vertex="1">
          <mxGeometry x="30" y="50" width="540" height="140" as="geometry" />
        </mxCell>
        <mxCell id="PMldCsfoqPfyiIIAnVPi-9" value="Amazon&lt;br&gt;CloudWatch" style="outlineConnect=0;fontColor=#232F3E;gradientColor=#F34482;gradientDirection=north;fillColor=#BC1356;strokeColor=#ffffff;dashed=0;verticalLabelPosition=bottom;verticalAlign=top;align=center;html=1;fontSize=12;fontStyle=0;aspect=fixed;shape=mxgraph.aws4.resourceIcon;resIcon=mxgraph.aws4.cloudwatch;labelBackgroundColor=#ffffff;" parent="PMldCsfoqPfyiIIAnVPi-8" vertex="1">
          <mxGeometry x="30" y="20" width="78" height="78" as="geometry" />
        </mxCell>
        <mxCell id="PMldCsfoqPfyiIIAnVPi-10" value="X-Ray" style="sketch=0;points=[[0,0,0],[0.25,0,0],[0.5,0,0],[0.75,0,0],[1,0,0],[0,1,0],[0.25,1,0],[0.5,1,0],[0.75,1,0],[1,1,0],[0,0.25,0],[0,0.5,0],[0,0.75,0],[1,0.25,0],[1,0.5,0],[1,0.75,0]];outlineConnect=0;fontColor=#232F3E;fillColor=#C925D1;strokeColor=#ffffff;dashed=0;verticalLabelPosition=bottom;verticalAlign=top;align=center;html=1;fontSize=12;fontStyle=0;aspect=fixed;shape=mxgraph.aws4.resourceIcon;resIcon=mxgraph.aws4.xray;" parent="PMldCsfoqPfyiIIAnVPi-8" vertex="1">
          <mxGeometry x="170" y="20" width="78" height="78" as="geometry" />
        </mxCell>
        <mxCell id="PMldCsfoqPfyiIIAnVPi-13" value="AWS IAM" style="shape=image;verticalLabelPosition=bottom;labelBackgroundColor=default;verticalAlign=top;aspect=fixed;imageAspect=0;image=data:image/png,iVBORw0KGgoAAAANSUhEUgAAALoAAAC6CAYAAAAZDlfxAAAMQGlDQ1BJQ0MgUHJvZmlsZQAASImVVwdYU8kWnluSkEAIEEBASuhNEKkBpITQAkgvgo2QBAglxISgYkcXFVy7WMCGrooodkDsiJ1FsWFfLKgo62LBrrxJAV33le/N982d//5z5j9nzp259w4AtBNcsTgP1QIgX1QoiQ8LYoxOTWOQngIyIAEa0AM0Lk8qZsXGRgFYBtq/l3c3ACJvrzrJtf7Z/1+LNl8g5QGAxEKcwZfy8iE+AABexRNLCgEgynnLSYViOYYV6EpggBDPl+MsJa6S4wwl3qOwSYxnQ9wCgJoGlyvJAkDzMuQZRbwsqKHZC7GLiC8UAUBjQOyfn1/AhzgdYjtoI4ZYrs/M+EEn62+aGYOaXG7WIFbORVHUgoVScR53yv+Zjv9d8vNkAz5sYNXIloTHy+cM83YztyBSjjUg7hFlRMdArAPxByFfYQ8xSsmWhScp7VFjnpQNcwb0IXbhc4MjITaGOFSUFx2l4jMyhaEciOEKQScLCzmJEBtAPF8gDUlQ2WyUFMSrfKH1mRI2S8Wf40oUfuW+7styk1gq/dfZAo5KH9Mszk5MgZgCsVWRMDkaYk2InaW5CZEqm5HF2ezoARuJLF4evxXE8QJRWJBSHyvKlITGq+zL8qUD88U2Zgs50Sq8rzA7MVyZH6yFx1XED+eCXRaIWEkDOgLp6KiBufAFwSHKuWPPBKKkBJXOB3FhULxyLE4R58Wq7HELQV6YnLeA2F1alKAaiycXwgWp1MczxYWxico48eIcbkSsMh58CYgCbBAMGEAGawYoADlA2NbT0APvlD2hgAskIAsIgJOKGRiRougRwWsCKAZ/QiQA0sFxQYpeASiC/NdBVnl1ApmK3iLFiFzwBOJ8EAny4L1MMUo06C0ZPIaM8B/eubDyYLx5sMr7/z0/wH5nWJCJUjGyAY8M2oAlMYQYTAwnhhLtcSPcH/fFo+A1EFZXnIl7D8zjuz3hCaGd8JBwndBJuDVBWCL5KcpRoBPqh6pykfFjLnAbqOmBB+F+UB0q4/q4EXDC3aEfFh4APXtAlq2KW54Vxk/af5vBD09DZUd2IaPkIeRAst3PIzUdND0GVeS5/jE/ylgzBvPNHuz52T/7h+zzYRv5syU2H9uPncVOYuexI1gDYGDHsUasFTsqx4Or67FidQ14i1fEkwt1hP/wN/Bk5ZmUutS6dLt8UfYVCibL39GAXSCeIhFmZRcyWPCLIGBwRDznYQxXF1c3AOTfF+Xr602c4ruB6Ld+5+b8AYDf8f7+/sPfuYjjAOz1gtv/0HfOjgk/HeoAnDvEk0mKlBwuvxDgW4IGd5ohMAWWwA7OxxV4Al8QCEJABIgBiSAVjIfRZ8N1LgGTwDQwG5SCcrAErARrwQawGWwHu8A+0ACOgJPgDLgILoPr4A5cPV3gBegF78BnBEFICBWhI4aIGWKNOCKuCBPxR0KQKCQeSUXSkSxEhMiQacgcpBxZhqxFNiE1yF7kEHISOY+0I7eQB0g38hr5hGKoBqqLmqA26HCUibLQSDQRHYdmoRPRYnQuughdjVajO9F69CR6Eb2OdqIv0D4MYOqYPmaOOWFMjI3FYGlYJibBZmBlWAVWjdVhTfA5X8U6sR7sI07E6TgDd4IrOBxPwnn4RHwGvhBfi2/H6/EW/Cr+AO/FvxGoBGOCI8GHwCGMJmQRJhFKCRWErYSDhNNwL3UR3hGJRH2iLdEL7sVUYg5xKnEhcR1xN/EEsZ34iNhHIpEMSY4kP1IMiUsqJJWS1pB2ko6TrpC6SB/U1NXM1FzVQtXS1ERqJWoVajvUjqldUXuq9pmsRbYm+5BjyHzyFPJi8hZyE/kSuYv8maJNsaX4URIpOZTZlNWUOsppyl3KG3V1dQt1b/U4daH6LPXV6nvUz6k/UP+ooaPhoMHWGKsh01iksU3jhMYtjTdUKtWGGkhNoxZSF1FrqKeo96kfNOmazpocTb7mTM1KzXrNK5ovaWSaNY1FG08rplXQ9tMu0Xq0yFo2WmwtrtYMrUqtQ1odWn3adO0R2jHa+doLtXdon9d+pkPSsdEJ0eHrzNXZrHNK5xEdo1vS2XQefQ59C/00vUuXqGury9HN0S3X3aXbpturp6PnrpesN1mvUu+oXqc+pm+jz9HP01+sv0//hv6nISZDWEMEQxYMqRtyZch7g6EGgQYCgzKD3QbXDT4ZMgxDDHMNlxo2GN4zwo0cjOKMJhmtNzpt1DNUd6jvUN7QsqH7ht42Ro0djOONpxpvNm417jMxNQkzEZusMTll0mOqbxpommO6wvSYabcZ3czfTGi2wuy42XOGHoPFyGOsZrQwes2NzcPNZeabzNvMP1vYWiRZlFjstrhnSbFkWmZarrBstuy1MrMaZTXNqtbqtjXZmmmdbb3K+qz1extbmxSbeTYNNs9sDWw5tsW2tbZ37ah2AXYT7artrtkT7Zn2ufbr7C87oA4eDtkOlQ6XHFFHT0eh4zrH9mGEYd7DRMOqh3U4aTixnIqcap0eOOs7RzmXODc4vxxuNTxt+NLhZ4d/c/FwyXPZ4nJnhM6IiBElI5pGvHZ1cOW5Vrpec6O6hbrNdGt0e+Xu6C5wX+9+04PuMcpjnkezx1dPL0+JZ51nt5eVV7pXlVcHU5cZy1zIPOdN8A7ynul9xPujj6dPoc8+n798nXxzfXf4PhtpO1IwcsvIR34Wfly/TX6d/gz/dP+N/p0B5gHcgOqAh4GWgfzArYFPWfasHNZO1ssglyBJ0MGg92wf9nT2iWAsOCy4LLgtRCckKWRtyP1Qi9Cs0NrQ3jCPsKlhJ8IJ4ZHhS8M7OCYcHqeG0xvhFTE9oiVSIzIhcm3kwyiHKElU0yh0VMSo5aPuRltHi6IbYkAMJ2Z5zL1Y29iJsYfjiHGxcZVxT+JHxE+LP5tAT5iQsCPhXWJQ4uLEO0l2SbKk5mRa8tjkmuT3KcEpy1I6Rw8fPX30xVSjVGFqYxopLTlta1rfmJAxK8d0jfUYWzr2xjjbcZPHnR9vND5v/NEJtAncCfvTCekp6TvSv3BjuNXcvgxORlVGL4/NW8V7wQ/kr+B3C/wEywRPM/0yl2U+y/LLWp7VnR2QXZHdI2QL1wpf5YTnbMh5nxuTuy23Py8lb3e+Wn56/iGRjihX1FJgWjC5oF3sKC4Vd070mbhyYq8kUrJVikjHSRsLdeGPfKvMTvaL7EGRf1Fl0YdJyZP2T9aeLJrcOsVhyoIpT4tDi3+bik/lTW2eZj5t9rQH01nTN81AZmTMaJ5pOXPuzK5ZYbO2z6bMzp39e4lLybKSt3NS5jTNNZk7a+6jX8J+qS3VLJWUdszznbdhPj5fOL9tgduCNQu+lfHLLpS7lFeUf1nIW3jh1xG/rv61f1HmorbFnovXLyEuES25sTRg6fZl2suKlz1aPmp5/QrGirIVb1dOWHm+wr1iwyrKKtmqztVRqxvXWK1ZsubL2uy11yuDKndXGVctqHq/jr/uyvrA9XUbTDaUb/i0Ubjx5qawTfXVNtUVm4mbizY/2ZK85exvzN9qthptLd/6dZtoW+f2+O0tNV41NTuMdyyuRWtltd07x+68vCt4V2OdU92m3fq7y/eAPbI9z/em772xL3Jf837m/roD1geqDtIPltUj9VPqexuyGzobUxvbD0Ucam7ybTp42PnwtiPmRyqP6h1dfIxybO6x/uPFx/tOiE/0nMw6+ah5QvOdU6NPXWuJa2k7HXn63JnQM6fOss4eP+d37sh5n/OHLjAvNFz0vFjf6tF68HeP3w+2ebbVX/K61HjZ+3JT+8j2Y1cCrpy8Gnz1zDXOtYvXo6+330i6cbNjbEfnTf7NZ7fybr26XXT7851Zdwl3y+5p3au4b3y/+g/7P3Z3enYefRD8oPVhwsM7j3iPXjyWPv7SNfcJ9UnFU7OnNc9cnx3pDu2+/HzM864X4hefe0r/1P6z6qXdywN/Bf7V2ju6t+uV5FX/64VvDN9se+v+trkvtu/+u/x3n9+XfTD8sP0j8+PZTymfnn6e9IX0ZfVX+69N3yK/3e3P7+8XcyVcxa8ABiuamQnA620AUFMBoMPzGWWM8vynKIjyzKpA4D9h5RlRUTwBqIP/73E98O+mA4A9W+DxC+rTxgIQSwUg0Rugbm6DdeCspjhXygsRngM2xnzNyM8A/6Yoz5w/xP1zC+Sq7uDn9l+KiHxMFd3LWwAAAIplWElmTU0AKgAAAAgABAEaAAUAAAABAAAAPgEbAAUAAAABAAAARgEoAAMAAAABAAIAAIdpAAQAAAABAAAATgAAAAAAAACQAAAAAQAAAJAAAAABAAOShgAHAAAAEgAAAHigAgAEAAAAAQAAALqgAwAEAAAAAQAAALoAAAAAQVNDSUkAAABTY3JlZW5zaG90dAWcWwAAAAlwSFlzAAAWJQAAFiUBSVIk8AAAAdZpVFh0WE1MOmNvbS5hZG9iZS54bXAAAAAAADx4OnhtcG1ldGEgeG1sbnM6eD0iYWRvYmU6bnM6bWV0YS8iIHg6eG1wdGs9IlhNUCBDb3JlIDYuMC4wIj4KICAgPHJkZjpSREYgeG1sbnM6cmRmPSJodHRwOi8vd3d3LnczLm9yZy8xOTk5LzAyLzIyLXJkZi1zeW50YXgtbnMjIj4KICAgICAgPHJkZjpEZXNjcmlwdGlvbiByZGY6YWJvdXQ9IiIKICAgICAgICAgICAgeG1sbnM6ZXhpZj0iaHR0cDovL25zLmFkb2JlLmNvbS9leGlmLzEuMC8iPgogICAgICAgICA8ZXhpZjpQaXhlbFlEaW1lbnNpb24+MTg2PC9leGlmOlBpeGVsWURpbWVuc2lvbj4KICAgICAgICAgPGV4aWY6UGl4ZWxYRGltZW5zaW9uPjE4NjwvZXhpZjpQaXhlbFhEaW1lbnNpb24+CiAgICAgICAgIDxleGlmOlVzZXJDb21tZW50PlNjcmVlbnNob3Q8L2V4aWY6VXNlckNvbW1lbnQ+CiAgICAgIDwvcmRmOkRlc2NyaXB0aW9uPgogICA8L3JkZjpSREY+CjwveDp4bXBtZXRhPgqNIW+vAAAAHGlET1QAAAACAAAAAAAAAF0AAAAoAAAAXQAAAF0AAAhXHewLigAACCNJREFUeAHsnXlsVFUUxs9MW4YOLdMFikWwG1oqUaqyQ8UQsIjEKFEiiFAIiLhQFhGNCRYICIKCGCNELBZBpAFUNHFhsY2VRQRasGCDSIewWBPbGVpKp9v4RpuZdt7c29mXd7/3151z3rv3nu/79fXN20ZllhaSFqPRSDqdztL06yLauHq9npKSkvyqsWUw0XS2r1cF0P3LHED3j94OQa/8cAs1NDSQRtPVP7NoN4rJJNa4RqNB+s8Z004B/zRF09lkMlH/hfOt4v63R7eAfm17vjWIBhQIdQXiJk+VQM+1lgHQrVKgoSQFALqS3EQtTAUAOlMaJJSkAEBXkpuohakAQGdKg4SSFADoSnITtTAVAOhMaZBQkgIAXUluohamAgCdKQ0SSlIAoCvJTdTCVACgM6VBQkkKAHQluYlamAoAdKY0SChJAYCuJDdRC1MBgM6UBgklKQDQleQmamEqANCZ0iChJAVkoBsMBvP1/AKqLtyppDpRi+AKWEBPnJVjVQFPGFmlQENJCsj26Ja3AOCZUSVZjFosCgB0cCCEAgBdCJtRJEAHA0IoANCFsBlFAnQwIIQCAF0Im1EkQAcDQigA0IWwGUUCdDAghAIAXQibUSRABwNCKADQhbAZRQJ0MCCEAgBdCJtRJEAHA0IoANCFsBlFAnQwIIQCAF0Im1EkQAcDQigA0IWwGUUCdDAghAIAXQibUSRABwNCKADQhbAZRQY16OHROkp4cjIljM8mTc8epAoLg2MhoIC5tZVMVVX09w8HqapwF7XU1QZ81kELeu+c2ZQ8d07ABcIEPFcgGN78FpSgJ7/6OvV+4nHPFUYPQaPAtX1fUOW6NQGbjwz0yspKc81nu6l+/96ATEo3PIsGvLs+IGNjUN8qUL5wMRmPlfh2EEbv2scmUezUp63ZgL9Nd8jBHym8m9Y6ITSUo0DLrVt0fMxDASlItkcP5Nt0NX2T6YHC3UwhWk0mZg6J4FFArdEwJ3NSOrlguqpn5n2VCCrQY8dkU8aqFbJaq385QRUL55Pl2zyW4FdApVZT+oZNFDdksGyy599YRjWHv5fFfR0IKtATn51FKS/MldVcsSyP/jnwrSyOQPAqED/uEUpfkSebYKDOwIQE6KXTc6j+wnmZaAgErwLaOzMoc/snsgkCdEkS1h4doMt4CfoAQOdYBNA54oRYCqBzDAPoHHFCLAXQOYYFAvTIpFSKeXA0db8vk7qlJEvn8KNIrelC5pYWaq6royaDkYylZWQoKaHaspOEU5wcA9ulAHo7Meyb/gI9MjmNknJzKW7oECKVyn4a3M83L10i/ZaPyFB8iLue6EmAziHA16Br+/Wn9LdWUWSfPpxZOJdqrq2jC6vXUE3RAec2EGwtgM4x3HegqygtbyX1yh7HGd29VM2p01SxaIF0SNPgXgcK3Qqgc4z1BehhUdGU+XkhaeLjOCN7mJKu2JbOmEn1f/zuYUfK2Rygc7z0Nujh0TE06JuvSd2lC2dUu5TZTK1NTaQOjyBSu3b8/tvLuXTj12N2HYr5EaBzfPcq6NKXzMHfHaCI7tGcEUk6s3KT9B9vI8OREmq8opfdTxMR24N0o7Ko78wZFJmYyO3Lkjw9ZSrdqrzY6XpKXwGgcxz2Jujp6zdS/MjhzNEst4yWL1hEdWdOMdexT3S9I5UGvP8eaRIS7FPWz003aulE9ljrZ1EbAJ3jvLdA1951N2UWbGOOdHXPPtK/87aUNzPX4SVunzOPkmblMFex/Ie4unUzMy9CAqBzXPYW6Pfu2EVRaakOR7q4cRNV7d7pMOdKMP7hCZS+/E2Hm5ibm+lo1kiHOVGCAJ3jtDdAD9N2o6GHDjsc5f89+VqHOXeCvZ6aQmnSqUVHS9ns5+hmeZmjlBAxgM6x2Rugx40dT/1XLpeN0trYRMdGZ0lx9w5XZB22BTIL95K2r/wC1LUvv6LKtatZmyk+DtA5FnsD9BTpCZbEiY/KRrlSuIcub1gni3saiM+WDmHy5IcwdX9eojPP2B7G9XScUNseoHMc8wboGR9sodj7M2WjlE6bTvUXK2RxTwNqTSQNKyqSdSP62ReALkPCFvAG6AM2byXdwHtsnba1jo8b67M3Ro04Il0ksrs5rLWxse1QSTYVIQIAnWOzL0E/mjWKzM1NnNHdTw0r/kl29RWg41E6JlEAnSlNyCWwR+dYBtA54oRYCqBzDAPoHHFCLAXQOYYBdJs42n4ZlPLKYlvAR63y52dze7Z8uXe0nHtpHvc7D0B3pFpbDKDbxGGBYlvD85ax7Cw5A7qjs1idfblnzT9o3utiMBjM1/MLqLrQ8/tBXLUCoNsUY4FiW8PzlmigJ7a7ES+gb9MF6DZ4AbpNC2+0FPdKOtYFo87+1Xoipi/OowN0TxyRbwvQ5Zq4HAHocslYf6hBc4weyPej49DFBozK8syqH5bOrhbz5sHbFqBzzHMVdN3QkRQ1cGCHHm+bOEH6BbueHWKWD5cLdkjPg7bI4t4I3DF9muwX8yxv+rq8fUeH7puNRqopLqbGv650iCvxA0DnuOos6OExcTRo/35SR/hnr8eZslupc0uWSq+4K3Jr21DZCKBznHIW9OQl0q/WTQrdX62z7O2PjhrBUSL0UwCd46GzoDv68sfpNihTvjwLFAwFA3SOCwCdI06IpQA6xzCAbhPHW/e6VP98hK5/mm/r2EGLdT+Lg1WtIdzrYpXC9YYnoFteMXF23ouuD+rjLVJfW+rw1RudHbqw9oiuTteZ89buHAq6O39n5uNqjc6sb3/B6F8AAAD//zSYzqEAAAhOSURBVO2deWwUVRzHf9tr7UFb2qakpaEUirRy0wDFgChBiXgFEssRJaSApRgxVTSKCSEkEDEaEiIBYkVAIQqiwUYRMSBBqeEw5RK8cBsRlZIeQFe21zqzuI/Ozszrdrc7x+t3/3Dfe7/Zee/3+X0yzE5nR4dXerk2baErO7aS0a+sp0spb2mZatqa+QvI/csFNl585ChFxcWxvtzoaGmh76dMVoxZoTNscyWljBqhWkr15EnkbWtVjfsHEoYU0ugd2/zdkN+DqaUWz64mDHX9waynq7lDiaeVzKOCiufZRx0QnbHokQZEV2KE6BIPM4/ozpxcyiktpdSisRSXlkZt7n/p+tlzdLmykpovnlNWqxs9iK6EBdFNEt0RHU1DXn+TMibdq6xIp97N3y7R+bJnqL35RqfR4JoQXckJoks8DD+iOxw0Zs9eiu/fX1kNjV5HayudeGQGtd+4rhHVHwpVdEdMrP5OuxnhfReQdxXqXLz96n3HgOgScKNFz1+zjjKn3i/NHNzLc62OTj32qGrjfiVzVWP+gew5syk+K8vfZe9dfZljG9q0AdE5hTNSdGf2ACrau4ezGu3Qz2vX0bWqTxTBSFy1UExgww5E5xTNSNEHvryCsmc+oVrNmSXl1HzuNMVl5dDwjW+TMzNTsY3bVUs1c0sUYxBdgcPXgehqJmzESNGLqj4nZ0YGm1tunCl/lm7WnGRjsRmZNK6qivX9jWMTJ/ibvneIrsDh60B0NRM2YqToxUe+lf7opPzCp3XePP7rQxSTmMjWKDcCt4PoCjy+DkRXM2EjRoo+7sBBik1OZnPLjVNPzibPZRcbc0RF0cTvqlnf3zg2sVhqev1dioToCfmFlLf8RTaHGY3zSxaFPC1E56AzUvS75WvnAbcMeOrq6OzChdRS9w/J19fH7qsiZ3q6YsWtDY10YsZ0xVjiPSMV/c6dwStepaTBgzoP+dqB/yoEbqAnSuB2keqHe0uF3vpxeVGqmJGiJxaOoFFbKzU9aXe7KTohQTPW3UKFeh1dTxTNRUVgEKJHAKp/l0aKLs85aueHlDgozz991+/t7VQ95T7ytrd1ve3/W0B0JaruHiiUnw6916tv6oruk0zjv9gv/WUwJiiCpxeXSZcea4La1r8RRPeTuP0O0SUORh/RZfQxqek0Ztcuiu2bersSWv/1eun0osXU/ONZrShNOHxEc1wejJZvJ5a+1Aa+cI4eSCSy/V59RO+MNqf8ORow/6nOQ752w8kf6MKypdJFljtXWQI3isRVl1DvPwlcWzh93r0sXe1X7zsGjugSOTOO6P6CJeQX0Oj3t/u77P3Sxs309wfvsb5WIxKia81jpzHLi97Y2Oj9a+t2qt+903CuEN1w5BGb0IqiZ5UuYPn22l8Y4YjOHOiRhhVFx0/ppNKGKzpJ97ZrvaLkKzoasa6+jGrty05jEJ1TLbueunBSolAvL/L2aYcYROdUCaJz4NgsBNE5BTNX9KHSKYb6erd875b71zuP2uAsXzOEI7oSCy4vSjzMFF1Zjp7rQXQlS4gO0ZVG2LyHUxdOAXFE58CxWQiicwoWjujybjs8Hs7ezQn5Hp2Hy4sMPk5dJBThis5o2qCB6+jGFkmYm7qMxRb+bBA9fIbd2YMtRR8u3YuTXFjQnTwttW24v96xVDI6i8E5ug4YeTjYU5ekkWNo5JbNnD1ZO1T77jb6s3KTtRcZ5uogOgdgsKLLu0gcPpryKiooKV/9w2POFKaGWurr6fcNG6nh8FemrsOIySE6h3J3ROfsBiELEIDonCJAdA4cm4UgOqdgEJ0Dx2YhiM4pGETnwLFZCKJzCqYn+sWVq6j+4H7OJxGyGoH0Bx+moatXqZaFv4xKSPpOnU6Fa1ar4NQfP0E/VSwjb0eHKoYB6xGQn1k5dP0GShs/TrW4C6+tpIZDB1TjkR6w1B+MnP1zqejj3bo5W/FeFt3F9uJAlNOpm/2pEulBrn+4dOORClhKdDnJCYe+oej4+Ejli/2aSKCt2U3Hpz1gygosJ3pK8SQatv4tU2Bg0sgSOP/CcmqqPhrZSXT2bjnR5XUOfOkVyp41U2fJGLYjgSuf7iPXG2tNW7olRZdpZM8vpYHlZaaBwcQ9R8C15R26sk37Ed09Nwt/T5YVXV52dFIfkv/XhpkPTSNnv37Sb5c1frzMzw9REwh4pcdre+qu0dUvD9BV6eJC240mE1ahnNLSoiuXih4IhE4AoofODp+0EQGIbqNiYamhE1CJbubTdENPA58EAT4BWXTLPE2Xv1REQSB0Aqojuld6mXXjTehp4JMgwCcA0fl8EBWEAEQXpJBIg08AovP5ICoIAYguSCGRBp8AROfzQVQQAhBdkEIiDT4BiM7ng6ggBCC6IIVEGnwCEJ3PB1FBCEB0QQqJNPgEIDqfD6KCEIDoghQSafAJQHQ+H0QFIQDRBSkk0uATgOh8PogKQgCiC1JIpMEnANH5fBAVhABEF6SQSINPAKLz+SAqCAGILkghkQafAETn80FUEAIQXZBCIg0+AYjO54OoIAQguiCFRBp8AhCdzwdRQQhAdEEKiTT4BCA6nw+ighBQie5yubwNuz4i92d7BUkRaYAAUcLjs6jvvDkMhQMPGWUs0BCIgOqIDtEFqi5SYQQgOkOBhsgEILrI1UVujABEZyjQEJkARBe5usiNEYDoDAUaIhOA6CJXF7kxAhCdoUBDZAIQXeTqIjdGAKIzFGiITEBX9Fu3bpHTeZfhuXs8vWvepqZGSklJBecIE/B4PFRQsYzN4rvXRe41NTVJBUhhAaMavW3e2tpays3NNQovm6e3cQ7MF6IzFYxpQHRjOAeK/h/NVQ1VeHcNbAAAAABJRU5ErkJggg==;" parent="PMldCsfoqPfyiIIAnVPi-8" vertex="1">
          <mxGeometry x="285" y="20" width="80" height="80" as="geometry" />
        </mxCell>
        <mxCell id="PMldCsfoqPfyiIIAnVPi-14" value="Amazon RDS Proxy" style="sketch=0;outlineConnect=0;fontColor=#232F3E;gradientColor=none;fillColor=#C925D1;strokeColor=none;dashed=0;verticalLabelPosition=bottom;verticalAlign=top;align=center;html=1;fontSize=12;fontStyle=0;aspect=fixed;pointerEvents=1;shape=mxgraph.aws4.rds_proxy;" parent="PMldCsfoqPfyiIIAnVPi-2" vertex="1">
          <mxGeometry x="396" y="270" width="78" height="78" as="geometry" />
        </mxCell>
        <mxCell id="PMldCsfoqPfyiIIAnVPi-15" style="edgeStyle=orthogonalEdgeStyle;rounded=0;orthogonalLoop=1;jettySize=auto;html=1;exitX=1;exitY=0.5;exitDx=0;exitDy=0;exitPerimeter=0;" parent="PMldCsfoqPfyiIIAnVPi-2" target="PMldCsfoqPfyiIIAnVPi-14" edge="1">
          <mxGeometry relative="1" as="geometry">
            <mxPoint x="290" y="308.5" as="sourcePoint" />
            <mxPoint x="378" y="308.5" as="targetPoint" />
          </mxGeometry>
        </mxCell>
        <mxCell id="PMldCsfoqPfyiIIAnVPi-16" style="edgeStyle=orthogonalEdgeStyle;rounded=0;orthogonalLoop=1;jettySize=auto;html=1;exitX=1;exitY=0.5;exitDx=0;exitDy=0;exitPerimeter=0;entryX=0;entryY=0.5;entryDx=0;entryDy=0;entryPerimeter=0;" parent="PMldCsfoqPfyiIIAnVPi-2" target="PMldCsfoqPfyiIIAnVPi-5" edge="1">
          <mxGeometry relative="1" as="geometry">
            <mxPoint x="476" y="308.5" as="sourcePoint" />
            <mxPoint x="564" y="308.5" as="targetPoint" />
          </mxGeometry>
        </mxCell>
        <mxCell id="PMldCsfoqPfyiIIAnVPi-17" value="" style="endArrow=classic;html=1;rounded=0;entryX=0.396;entryY=1.014;entryDx=0;entryDy=0;entryPerimeter=0;" parent="PMldCsfoqPfyiIIAnVPi-2" source="PMldCsfoqPfyiIIAnVPi-6" target="PMldCsfoqPfyiIIAnVPi-8" edge="1">
          <mxGeometry width="50" height="50" relative="1" as="geometry">
            <mxPoint x="240" y="260" as="sourcePoint" />
            <mxPoint x="290" y="210" as="targetPoint" />
          </mxGeometry>
        </mxCell>
        <mxCell id="OJumu1SD6dnQ8lZJMn_q-0" value="Systems Manager &lt;br&gt;Parameter Store" style="sketch=0;points=[[0,0,0],[0.25,0,0],[0.5,0,0],[0.75,0,0],[1,0,0],[0,1,0],[0.25,1,0],[0.5,1,0],[0.75,1,0],[1,1,0],[0,0.25,0],[0,0.5,0],[0,0.75,0],[1,0.25,0],[1,0.5,0],[1,0.75,0]];points=[[0,0,0],[0.25,0,0],[0.5,0,0],[0.75,0,0],[1,0,0],[0,1,0],[0.25,1,0],[0.5,1,0],[0.75,1,0],[1,1,0],[0,0.25,0],[0,0.5,0],[0,0.75,0],[1,0.25,0],[1,0.5,0],[1,0.75,0]];outlineConnect=0;fontColor=#232F3E;fillColor=#E7157B;strokeColor=#ffffff;dashed=0;verticalLabelPosition=bottom;verticalAlign=top;align=center;html=1;fontSize=12;fontStyle=0;aspect=fixed;shape=mxgraph.aws4.resourceIcon;resIcon=mxgraph.aws4.systems_manager;" vertex="1" parent="PMldCsfoqPfyiIIAnVPi-1">
          <mxGeometry x="490" y="150" width="78" height="78" as="geometry" />
        </mxCell>
      </root>
    </mxGraphModel>
  </diagram>
  <diagram id="p7ZPoczenYrHHRxwsOG6" name="no-proxy">
    <mxGraphModel dx="1266" dy="679" grid="1" gridSize="10" guides="1" tooltips="1" connect="1" arrows="1" fold="1" page="1" pageScale="1" pageWidth="850" pageHeight="1100" math="0" shadow="0">
      <root>
        <mxCell id="0" />
        <mxCell id="1" parent="0" />
        <mxCell id="kfMwNfrBU-Sx2xjaCzi--1" value="AWS Cloud" style="points=[[0,0],[0.25,0],[0.5,0],[0.75,0],[1,0],[1,0.25],[1,0.5],[1,0.75],[1,1],[0.75,1],[0.5,1],[0.25,1],[0,1],[0,0.75],[0,0.5],[0,0.25]];outlineConnect=0;gradientColor=none;html=1;whiteSpace=wrap;fontSize=12;fontStyle=0;shape=mxgraph.aws4.group;grIcon=mxgraph.aws4.group_aws_cloud_alt;strokeColor=#232F3E;fillColor=#FFFFFF;verticalAlign=top;align=left;spacingLeft=30;fontColor=#232F3E;dashed=0;labelBackgroundColor=#ffffff;container=1;pointerEvents=0;collapsible=0;recursiveResize=0;" vertex="1" parent="1">
          <mxGeometry x="50" y="80" width="340" height="170" as="geometry" />
        </mxCell>
        <mxCell id="lQehCIS9duaNAbbA-U3n-1" value="Amazon Aurora RDS" style="sketch=0;points=[[0,0,0],[0.25,0,0],[0.5,0,0],[0.75,0,0],[1,0,0],[0,1,0],[0.25,1,0],[0.5,1,0],[0.75,1,0],[1,1,0],[0,0.25,0],[0,0.5,0],[0,0.75,0],[1,0.25,0],[1,0.5,0],[1,0.75,0]];outlineConnect=0;fontColor=#232F3E;fillColor=#C925D1;strokeColor=#ffffff;dashed=0;verticalLabelPosition=bottom;verticalAlign=top;align=center;html=1;fontSize=12;fontStyle=0;aspect=fixed;shape=mxgraph.aws4.resourceIcon;resIcon=mxgraph.aws4.rds;" vertex="1" parent="kfMwNfrBU-Sx2xjaCzi--1">
          <mxGeometry x="230" y="50" width="78" height="78" as="geometry" />
        </mxCell>
        <mxCell id="kfMwNfrBU-Sx2xjaCzi--19" value="" style="edgeStyle=orthogonalEdgeStyle;rounded=0;orthogonalLoop=1;jettySize=auto;html=1;" edge="1" parent="kfMwNfrBU-Sx2xjaCzi--1" source="lQehCIS9duaNAbbA-U3n-2" target="lQehCIS9duaNAbbA-U3n-1">
          <mxGeometry relative="1" as="geometry" />
        </mxCell>
        <mxCell id="lQehCIS9duaNAbbA-U3n-2" value="AWS Lambda" style="outlineConnect=0;fontColor=#232F3E;gradientColor=#F78E04;gradientDirection=north;fillColor=#D05C17;strokeColor=#ffffff;dashed=0;verticalLabelPosition=bottom;verticalAlign=top;align=center;html=1;fontSize=12;fontStyle=0;aspect=fixed;shape=mxgraph.aws4.resourceIcon;resIcon=mxgraph.aws4.lambda;labelBackgroundColor=#ffffff;spacingTop=6;" vertex="1" parent="kfMwNfrBU-Sx2xjaCzi--1">
          <mxGeometry x="50" y="50" width="78" height="78" as="geometry" />
        </mxCell>
      </root>
    </mxGraphModel>
  </diagram>
  <diagram id="FpewIovikYoFQkknj65U" name="proxy">
    <mxGraphModel dx="1266" dy="679" grid="1" gridSize="10" guides="1" tooltips="1" connect="1" arrows="1" fold="1" page="1" pageScale="1" pageWidth="850" pageHeight="1100" math="0" shadow="0">
      <root>
        <mxCell id="0" />
        <mxCell id="1" parent="0" />
        <mxCell id="ZLnb87iCgqlsUhKl7-mR-1" value="" style="rounded=0;whiteSpace=wrap;html=1;" vertex="1" parent="1">
          <mxGeometry x="50" y="80" width="520" height="170" as="geometry" />
        </mxCell>
        <mxCell id="ZLnb87iCgqlsUhKl7-mR-2" value="AWS Cloud" style="points=[[0,0],[0.25,0],[0.5,0],[0.75,0],[1,0],[1,0.25],[1,0.5],[1,0.75],[1,1],[0.75,1],[0.5,1],[0.25,1],[0,1],[0,0.75],[0,0.5],[0,0.25]];outlineConnect=0;gradientColor=none;html=1;whiteSpace=wrap;fontSize=12;fontStyle=0;shape=mxgraph.aws4.group;grIcon=mxgraph.aws4.group_aws_cloud_alt;strokeColor=#232F3E;fillColor=none;verticalAlign=top;align=left;spacingLeft=30;fontColor=#232F3E;dashed=0;labelBackgroundColor=#ffffff;container=1;pointerEvents=0;collapsible=0;recursiveResize=0;" vertex="1" parent="1">
          <mxGeometry x="50" y="80" width="520" height="170" as="geometry" />
        </mxCell>
        <mxCell id="ZLnb87iCgqlsUhKl7-mR-4" value="Amazon Aurora RDS" style="sketch=0;points=[[0,0,0],[0.25,0,0],[0.5,0,0],[0.75,0,0],[1,0,0],[0,1,0],[0.25,1,0],[0.5,1,0],[0.75,1,0],[1,1,0],[0,0.25,0],[0,0.5,0],[0,0.75,0],[1,0.25,0],[1,0.5,0],[1,0.75,0]];outlineConnect=0;fontColor=#232F3E;fillColor=#C925D1;strokeColor=#ffffff;dashed=0;verticalLabelPosition=bottom;verticalAlign=top;align=center;html=1;fontSize=12;fontStyle=0;aspect=fixed;shape=mxgraph.aws4.resourceIcon;resIcon=mxgraph.aws4.rds;" vertex="1" parent="ZLnb87iCgqlsUhKl7-mR-2">
          <mxGeometry x="414" y="50" width="78" height="78" as="geometry" />
        </mxCell>
        <mxCell id="ZLnb87iCgqlsUhKl7-mR-5" value="AWS Lambda" style="outlineConnect=0;fontColor=#232F3E;gradientColor=#F78E04;gradientDirection=north;fillColor=#D05C17;strokeColor=#ffffff;dashed=0;verticalLabelPosition=bottom;verticalAlign=top;align=center;html=1;fontSize=12;fontStyle=0;aspect=fixed;shape=mxgraph.aws4.resourceIcon;resIcon=mxgraph.aws4.lambda;labelBackgroundColor=#ffffff;spacingTop=6;" vertex="1" parent="ZLnb87iCgqlsUhKl7-mR-2">
          <mxGeometry x="40" y="50" width="78" height="78" as="geometry" />
        </mxCell>
        <mxCell id="ZLnb87iCgqlsUhKl7-mR-12" value="Amazon RDS Proxy" style="sketch=0;outlineConnect=0;fontColor=#232F3E;gradientColor=none;fillColor=#C925D1;strokeColor=none;dashed=0;verticalLabelPosition=bottom;verticalAlign=top;align=center;html=1;fontSize=12;fontStyle=0;aspect=fixed;pointerEvents=1;shape=mxgraph.aws4.rds_proxy;" vertex="1" parent="ZLnb87iCgqlsUhKl7-mR-2">
          <mxGeometry x="230" y="50" width="78" height="78" as="geometry" />
        </mxCell>
        <mxCell id="ZLnb87iCgqlsUhKl7-mR-13" style="edgeStyle=orthogonalEdgeStyle;rounded=0;orthogonalLoop=1;jettySize=auto;html=1;exitX=1;exitY=0.5;exitDx=0;exitDy=0;exitPerimeter=0;" edge="1" parent="ZLnb87iCgqlsUhKl7-mR-2" target="ZLnb87iCgqlsUhKl7-mR-12">
          <mxGeometry relative="1" as="geometry">
            <mxPoint x="124" y="88.5" as="sourcePoint" />
            <mxPoint x="212" y="88.5" as="targetPoint" />
          </mxGeometry>
        </mxCell>
        <mxCell id="ZLnb87iCgqlsUhKl7-mR-14" style="edgeStyle=orthogonalEdgeStyle;rounded=0;orthogonalLoop=1;jettySize=auto;html=1;exitX=1;exitY=0.5;exitDx=0;exitDy=0;exitPerimeter=0;entryX=0;entryY=0.5;entryDx=0;entryDy=0;entryPerimeter=0;" edge="1" parent="ZLnb87iCgqlsUhKl7-mR-2" target="ZLnb87iCgqlsUhKl7-mR-4">
          <mxGeometry relative="1" as="geometry">
            <mxPoint x="310" y="88.5" as="sourcePoint" />
            <mxPoint x="398" y="88.5" as="targetPoint" />
          </mxGeometry>
        </mxCell>
      </root>
    </mxGraphModel>
  </diagram>
</mxfile>
